<svg xmlns="http://www.w3.org/2000/svg" viewBox="0 0 146.28 46.84"><defs><style>.cls-1{stroke:#000;stroke-linecap:round;stroke-linejoin:round;stroke-width:1.32px;}</style></defs><title>black and white outlines</title><g id="Layer_2" data-name="Layer 2"><g id="TEMPLATE"><g id="_03_Logo" data-name="03 Logo"><path class="cls-1" d="M23.71,28.68a1.76,1.76,0,0,1,.13.21c0,.05,0,.08,0,.1a.19.19,0,0,1-.09.05.3.3,0,0,0-.11.07c-.07,0-.09.09-.06.13s0,.12-.07.24-.07.09,0,.14.05.09,0,.12a2.53,2.53,0,0,1-.5.62.94.94,0,0,0-.3.05l-.09,0-.13.16c0,.07-.08.12-.11.18a.22.22,0,0,1-.09.1s-.08,0-.12-.05a.21.21,0,0,0-.16-.11.16.16,0,0,0-.15.07l-.1.09a.23.23,0,0,0-.08.11s0,.07.06.11a.74.74,0,0,0,.3.12c.36.1.43.2.2.29A3.08,3.08,0,0,1,21,31.6l-1.69-.12q-.8-.06-1.59-.09l-1.61-.05c-.55,0-1.13,0-1.75,0-.83,0-1.7.05-2.61.11s-1.83.12-2.73.19l-2.59.23-2.24.22c-.67.08-1.22.14-1.68.21s-.75.11-.88.14a.67.67,0,0,1-.27.05c-.05,0-.08,0-.1-.11a1.64,1.64,0,0,1-.06-.33,3.74,3.74,0,0,0-.11-.58A2.11,2.11,0,0,0,.87,31a2.94,2.94,0,0,1-.16-.35,1.7,1.7,0,0,1,0-.49c0-.09.11-.16.26-.18l2.67-.72a30.81,30.81,0,0,1-.34-3.49c-.07-1.34-.1-2.78-.1-4.34,0-1.34,0-2.72.09-4.12s.14-2.82.26-4.25c.29-3.61.53-6.37.72-8.3a13.79,13.79,0,0,1,.56-3.36l.1-.21A.16.16,0,0,1,5,1.11a.15.15,0,0,1,.2,0c0,.05.12.06.24,0a.1.1,0,0,0,.07-.06L5.62,1l0,0A1,1,0,0,1,5.84.85a3.44,3.44,0,0,1,.47.2l.11.06a.9.9,0,0,1,.26.23c.09.11.16.12.24,0l0,0a.17.17,0,0,1,.13,0l.13.08.11.09.11.09a.75.75,0,0,1,.19.17,1.08,1.08,0,0,1,.17.41,7.71,7.71,0,0,1,0,1.6c0,.81-.1,1.8-.18,3s-.16,2.51-.25,4-.13,3-.15,4.58q0,1.11-.06,2.37c0,.85-.06,1.71-.09,2.6S7.06,22,7,22.88s0,1.69,0,2.46,0,1.2,0,1.75a8.89,8.89,0,0,0,.12,1.39q2.37-.5,5.29-.89a47.74,47.74,0,0,1,6.27-.39,14.22,14.22,0,0,1,2,.12,5.76,5.76,0,0,1,1.35.34,2.92,2.92,0,0,1,.37.16l.5.27c.17.1.33.2.47.3A1.27,1.27,0,0,1,23.71,28.68Z"/><path class="cls-1" d="M37.94,19.05a11,11,0,0,1-.13,1.85c-.1.73-.22,1.51-.34,2.33s-.26,1.68-.37,2.55a17.77,17.77,0,0,0-.18,2.44A9.36,9.36,0,0,0,37,29.66a3.9,3.9,0,0,0,.37,1.18,1.11,1.11,0,0,1,.16.5,1.15,1.15,0,0,1,0,.38c0,.1-.06.2-.09.28a.28.28,0,0,0,0,.22.28.28,0,0,1,0,.25.79.79,0,0,1-.19.26,1,1,0,0,1-.29.18.35.35,0,0,1-.3,0,1,1,0,0,0-.38-.17.57.57,0,0,0-.23,0,.75.75,0,0,0-.18.08.19.19,0,0,1-.18,0c-.25-.13-.51-.28-.8-.46a1.25,1.25,0,0,1-.56-.56,1.41,1.41,0,0,1-.17-.43c0-.2-.09-.44-.13-.72s-.06-.57-.09-.88-.05-.63-.07-.93A10.63,10.63,0,0,1,32.33,31a8,8,0,0,1-1.63,1.42,5.91,5.91,0,0,1-1.6.75,5.57,5.57,0,0,1-1.44.21,3.48,3.48,0,0,1-1.17-.17,2.24,2.24,0,0,1-.79-.41,13.14,13.14,0,0,1-1.51-1.72,1.8,1.8,0,0,1-.4-1.07,7.12,7.12,0,0,1,.67-2.55,10.29,10.29,0,0,1,1.41-2.16,12.23,12.23,0,0,1,1.89-1.77,19.7,19.7,0,0,1,2.14-1.41,19.27,19.27,0,0,1,2.16-1c.7-.28,1.34-.5,1.92-.68,0-.78-.06-1.46-.1-2a7,7,0,0,0-.16-1.29,4.13,4.13,0,0,0-1-2,2.24,2.24,0,0,0-1.63-.66,2.07,2.07,0,0,0-1.22.45,4.65,4.65,0,0,0-1.11,1.24A7.54,7.54,0,0,0,28,17.92a8,8,0,0,0-.34,2.15c0,.18,0,.36,0,.54s0,.35.07.54a.19.19,0,0,1-.1.21.83.83,0,0,1-.29.1l-.37.05a1.73,1.73,0,0,0-.32.07.55.55,0,0,1-.18.05.21.21,0,0,1-.13,0,.92.92,0,0,1-.16-.12,2.91,2.91,0,0,0-.27-.21,1.65,1.65,0,0,0-.36-.22l-.32-.15L25,20.79c-.06,0-.1-.08-.1-.14a7.14,7.14,0,0,1,.6-2.77,10,10,0,0,1,1.6-2.61,8.68,8.68,0,0,1,2.34-1.93,5.53,5.53,0,0,1,2.82-.76,5.36,5.36,0,0,1,2.1.37,4.92,4.92,0,0,1,1.51,1,5.32,5.32,0,0,1,1,1.3,7,7,0,0,1,.63,1.44A8.55,8.55,0,0,1,37.82,18,8.43,8.43,0,0,1,37.94,19.05ZM34,22.9a15.1,15.1,0,0,0-3,1.55,14.44,14.44,0,0,0-1.6,1.22,12.78,12.78,0,0,0-1.5,1.53,9.18,9.18,0,0,0-1.19,1.74,5.07,5.07,0,0,0-.45,1.28,1.61,1.61,0,0,0,0,.84.6.6,0,0,0,.31.36,2.07,2.07,0,0,0,1.39.06,4.54,4.54,0,0,0,1.45-.74,10.24,10.24,0,0,0,1.41-1.27c.45-.5.88-1,1.28-1.54s.77-1.05,1.09-1.56.57-.95.78-1.33Z"/><path class="cls-1" d="M65.55,2.26a8.56,8.56,0,0,0-1.83.26,10.39,10.39,0,0,0-2.37.91,12.92,12.92,0,0,0-2.51,1.72,11.23,11.23,0,0,0-2.26,2.69,15.05,15.05,0,0,0-1.64,3.84,18.57,18.57,0,0,0-.64,5.16,16.86,16.86,0,0,0,.48,4.23,12.9,12.9,0,0,0,1.31,3.24A9.87,9.87,0,0,0,58,26.65a10.33,10.33,0,0,0,2.25,1.56,10.14,10.14,0,0,0,2.35.86,10.67,10.67,0,0,0,2.24.25h.47a2.38,2.38,0,0,0,.46,0c.31-.08.66-.2,1.07-.34a8.13,8.13,0,0,0,1.29-.59,7.79,7.79,0,0,0,1.32-.91,6.25,6.25,0,0,0,1.18-1.31,7.43,7.43,0,0,0,.88-1.76,7.82,7.82,0,0,0,.39-2.29,4.63,4.63,0,0,0-.27-1.85,3.67,3.67,0,0,0-.62-1l-1.21.15c-.64.09-1.29.21-2,.37L66,20.22l-1.6.41a4.6,4.6,0,0,1-1.13.15,2.78,2.78,0,0,1-.6-.11,2.29,2.29,0,0,1-.53-.2,1.33,1.33,0,0,1-.45-.4.38.38,0,0,1-.17.06l-.11,0a.12.12,0,0,1-.08-.09,1.31,1.31,0,0,1,0-.15,3,3,0,0,1,0-.58A.45.45,0,0,1,61,19.2a.38.38,0,0,1-.11-.11c-.07-.11-.13-.23-.19-.34a.27.27,0,0,1,0-.31,1.15,1.15,0,0,1,.37-.27,6.57,6.57,0,0,1,1.1-.44c.52-.17,1.22-.37,2.11-.6s2-.47,3.41-.74c1.79-.33,3.34-.56,4.65-.67s2.38-.18,3.2-.18c.46,0,.84,0,1.13,0a5.35,5.35,0,0,1,.64.07,2.25,2.25,0,0,1,.81.32,3,3,0,0,1,.47.37,1,1,0,0,1,.17.22,2.94,2.94,0,0,1,.37.71.6.6,0,0,1,.33.26.23.23,0,0,1,0,.16c0,.13-.07.3-.11.51s-.11.33-.19.33a3.43,3.43,0,0,1-.45,0l-1,.07-1.44.09-1.72.15a4.36,4.36,0,0,1,.73,1.19,5.43,5.43,0,0,1,.21,3.76,9.83,9.83,0,0,1-1.1,2.36,12.42,12.42,0,0,1-1.88,2.24A13.48,13.48,0,0,1,67,31.6a12.54,12.54,0,0,1-3.44.47,16.62,16.62,0,0,1-2.17-.15A13.87,13.87,0,0,1,59,31.39a16.67,16.67,0,0,1-2.41-1,15.93,15.93,0,0,1-2.43-1.58,10.72,10.72,0,0,1-3.44-4.65,18.43,18.43,0,0,1-1.08-7,12.57,12.57,0,0,1,.57-3.64,17.57,17.57,0,0,1,1.62-3.69,21.41,21.41,0,0,1,2.51-3.44A18.94,18.94,0,0,1,57.6,3.54a17.06,17.06,0,0,1,3.85-2A13.87,13.87,0,0,1,65.76.66a15.33,15.33,0,0,1,1.66.11,16.06,16.06,0,0,1,2,.35,15.74,15.74,0,0,1,2,.64,9.44,9.44,0,0,1,1.78,1A5.81,5.81,0,0,1,74.48,4a3.67,3.67,0,0,1,.67,1.7,4.4,4.4,0,0,1-.94,3.48,3.55,3.55,0,0,1-1.09.92,2.07,2.07,0,0,1-1,.3,3,3,0,0,1-.52.28,1.66,1.66,0,0,1-.39.11.85.85,0,0,1-.32,0,.76.76,0,0,1-.24-.18.53.53,0,0,1-.12-.25.63.63,0,0,1,.08-.37,7.09,7.09,0,0,1-.79.75,3,3,0,0,1-.51.33.64.64,0,0,1-.37,0c-.13-.09-.15-.17-.07-.24s.21-.18.4-.32a7.74,7.74,0,0,0,.65-.6,3.52,3.52,0,0,0,.65-1c.08-.31.16-.65.24-1a6.06,6.06,0,0,0,.12-1.21,4.39,4.39,0,0,0-.43-2,3.9,3.9,0,0,0-1.16-1.38,4.66,4.66,0,0,0-1.7-.78A8.58,8.58,0,0,0,65.55,2.26Z"/><path class="cls-1" d="M94.39,31.6c0,.13-.11.29-.33.47a1.18,1.18,0,0,1-.82.28,1.89,1.89,0,0,1-.55-.15,3.94,3.94,0,0,1-.83-.44,3.54,3.54,0,0,1-.78-.72,1.55,1.55,0,0,1-.37-1,3.69,3.69,0,0,1,0-.66V26.51c0-.7,0-1.42,0-2.14-.1.52-.23,1.06-.37,1.61a12.84,12.84,0,0,1-.54,1.66A14.86,14.86,0,0,1,89,29.26a12.58,12.58,0,0,1-1,1.54,4,4,0,0,1-.64.66,4.3,4.3,0,0,1-.66.45,3.47,3.47,0,0,1-.61.27,1.49,1.49,0,0,1-.43.09,1.11,1.11,0,0,1-.4-.19c-.21-.12-.45-.28-.74-.47S84,31.2,83.68,31s-.62-.48-.91-.72-.55-.46-.78-.67a3.85,3.85,0,0,1-.5-.5,2.32,2.32,0,0,1-.27-.74,10.22,10.22,0,0,1-.2-1.28c-.06-.5-.11-1.07-.14-1.71s-.06-1.31-.06-2c0-.39,0-.89,0-1.51s0-1.29.09-2,.1-1.43.16-2.16.15-1.38.24-2a8.26,8.26,0,0,1,.33-1.43c.13-.36.29-.55.46-.55a4,4,0,0,1,.61.1,3.65,3.65,0,0,0,.88.1,2.55,2.55,0,0,0,.94-.12,1.17,1.17,0,0,1,.4-.12c.15,0,.22.12.22.37v.2a1.11,1.11,0,0,1,0,.23c0,.09,0,.31-.1.67s-.11.82-.18,1.39-.15,1.19-.22,1.89-.14,1.43-.21,2.19-.12,1.54-.16,2.32-.06,1.52-.06,2.23c0,.47,0,.95,0,1.43a11.83,11.83,0,0,0,.12,1.29,3.19,3.19,0,0,0,.24.94q.15.36.36.36A1.32,1.32,0,0,0,85.5,29a3.11,3.11,0,0,0,.85-.75,10.19,10.19,0,0,0,1.07-1.6,23.64,23.64,0,0,0,1.27-2.76c.45-1.14.93-2.55,1.42-4.22s1-3.65,1.53-6a.09.09,0,0,1,.07-.09.38.38,0,0,1,.19,0,5.33,5.33,0,0,1,.71.06,5.67,5.67,0,0,1,.84.15,3.72,3.72,0,0,1,.69.23c.19.08.29.18.29.28,0,.65,0,1.35-.09,2.12s-.12,1.55-.19,2.37S94,20.4,94,21.26s-.08,1.69-.08,2.53c0,1.5,0,2.93.14,4.29S94.23,30.62,94.39,31.6ZM87.31,7.5a2.76,2.76,0,0,1,0,.57,2.74,2.74,0,0,1-.13.62,1.87,1.87,0,0,1-.26.53.86.86,0,0,1-.4.31,2.84,2.84,0,0,1-1,.24,1.32,1.32,0,0,1-.57-.12,3.5,3.5,0,0,1-.49-.29,1.8,1.8,0,0,1-.6-.53,1.17,1.17,0,0,1-.24-.66,2.13,2.13,0,0,1,.11-.61A4,4,0,0,1,84,6.87a4.78,4.78,0,0,1,.38-.63,1.31,1.31,0,0,1,.4-.39,1.11,1.11,0,0,1,.48-.17h.34a1.78,1.78,0,0,1,1.26.41A2,2,0,0,1,87.31,7.5ZM90,7.91a2.27,2.27,0,0,1,0-.58,2.55,2.55,0,0,1,.13-.61,1.7,1.7,0,0,1,.26-.54.8.8,0,0,1,.4-.33,5.48,5.48,0,0,1,.56-.16,1.93,1.93,0,0,1,.45-.05,1.32,1.32,0,0,1,.59.11,3.08,3.08,0,0,1,.47.3,1.71,1.71,0,0,1,.61.52,1.1,1.1,0,0,1,.24.67,2.13,2.13,0,0,1-.11.6,5,5,0,0,1-.28.69,6.16,6.16,0,0,1-.37.63,1,1,0,0,1-.39.37,1.14,1.14,0,0,1-.49.18h-.35a1.75,1.75,0,0,1-1.25-.41A2,2,0,0,1,90,7.91Z"/><path class="cls-1" d="M112.3,23.83c0,.16,0,.35,0,.56s0,.46,0,.74a6.9,6.9,0,0,1-.15,1.28A8.69,8.69,0,0,1,111.7,28a9.11,9.11,0,0,1-.89,1.68,6.8,6.8,0,0,1-3.32,2.61,7.21,7.21,0,0,1-2.55.42,7.59,7.59,0,0,1-2.6-.48,7.09,7.09,0,0,1-2.43-1.52,8,8,0,0,1-1.79-2.62,9.29,9.29,0,0,1-.71-3.79,10.5,10.5,0,0,1,.36-2.73,13.9,13.9,0,0,1,1-2.53,12.5,12.5,0,0,1,1.41-2.2,11.68,11.68,0,0,1,1.71-1.73A7.92,7.92,0,0,1,103.7,14a4.65,4.65,0,0,1,1.87-.41,6,6,0,0,1,2.61.49,4.88,4.88,0,0,1,1.63,1.24,4.42,4.42,0,0,1,.86,1.57,5.42,5.42,0,0,1,.24,1.5,4.22,4.22,0,0,1-.31,1.48,4.62,4.62,0,0,1-1,1.58,5.64,5.64,0,0,1-1.86,1.26,7.06,7.06,0,0,1-2.81.5,4.65,4.65,0,0,1-1.59-.25,5,5,0,0,1-2.16-1.44,7.83,7.83,0,0,1-.64-.84,11.32,11.32,0,0,0-.39,3.14,6.46,6.46,0,0,0,.36,2.22,4.85,4.85,0,0,0,1,1.67A4.11,4.11,0,0,0,103,28.78a4.75,4.75,0,0,0,1.91.37,5.54,5.54,0,0,0,2.27-.44,6.51,6.51,0,0,0,1.7-1.12,7.86,7.86,0,0,0,1.25-1.46c.36-.52.66-1,.92-1.45s.49-.8.68-1.09.39-.42.58-.41.13.07.13.22a.76.76,0,0,1,0,.21A.79.79,0,0,1,112.3,23.83Zm-6.51-8a4.58,4.58,0,0,0-1,.16,5,5,0,0,0-1.3.58,6.6,6.6,0,0,0-1.35,1.11A6.45,6.45,0,0,0,101,19.42l.53-.26a.78.78,0,0,1,.32-.11s.07,0,.13.09a2.91,2.91,0,0,0,1.24,1.2,4,4,0,0,0,1.68.35,2.86,2.86,0,0,0,1.26-.25,2.51,2.51,0,0,0,.88-.63,2.42,2.42,0,0,0,.5-.86,3,3,0,0,0,.15-.92,2.56,2.56,0,0,0-.5-1.61A1.62,1.62,0,0,0,105.79,15.78Z"/><path class="cls-1" d="M132.33,14.09c0,.08-.19.32-.44.73l-1,1.56c-.39.62-.84,1.34-1.33,2.14L128.06,21c-.53.85-1,1.71-1.57,2.56s-1,1.65-1.46,2.39-.85,1.4-1.18,2l-.73,1.3c-.16.29-.38.73-.67,1.34l-1,2.09-1.2,2.54c-.43.91-.85,1.82-1.28,2.74l-1.23,2.66-1.06,2.3-.77,1.68c-.2.44-.31.7-.34.79a1.46,1.46,0,0,1-.36.61,1.15,1.15,0,0,1-.47.19.24.24,0,0,1-.23-.09.93.93,0,0,1-.15-.26l-.13-.27a.3.3,0,0,0-.16-.14c-.18,0-.29-.07-.31-.12l-.14-.29a.23.23,0,0,0-.13-.1h-.13l-.1,0s0-.06,0-.13c0-.24,0-.49.08-.74a6.39,6.39,0,0,1,.09-.67,7.85,7.85,0,0,1,.45-1c.25-.51.56-1.12.94-1.85s.79-1.54,1.26-2.42,1-1.79,1.43-2.71l1.43-2.71c.47-.9.89-1.71,1.26-2.45-.18-.4-.43-.92-.75-1.57s-.67-1.35-1-2.14-.78-1.62-1.2-2.5-.84-1.75-1.25-2.61l-1.16-2.51c-.38-.81-.71-1.54-1-2.18s-.5-1.17-.66-1.6a3.56,3.56,0,0,1-.24-.79A.69.69,0,0,1,113,14a.32.32,0,0,1,.23-.09.89.89,0,0,1,.3.06l.34.13.5.21c.15.06.27,0,.34-.08s.17-.18.37-.18a1,1,0,0,1,.5.09.11.11,0,0,0,.12.05.41.41,0,0,0,.1-.09l.13-.14a.52.52,0,0,1,.19-.12.54.54,0,0,1,.43.09,1.19,1.19,0,0,1,.37.56c.07.22.22.59.44,1.13s.49,1.15.8,1.86.65,1.46,1,2.28.75,1.61,1.12,2.4l1.08,2.22c.33.69.63,1.27.89,1.73.39-.72.81-1.49,1.27-2.31s.91-1.63,1.38-2.44.94-1.61,1.4-2.39.9-1.5,1.31-2.16.77-1.25,1.09-1.75.58-.87.78-1.13a.86.86,0,0,0,.17-.28s.06-.09.18-.13l.22-.09a.56.56,0,0,1,.32,0,1.37,1.37,0,0,0,.3,0,.2.2,0,0,1,.17.13.11.11,0,0,0,.13,0l.21-.08.25-.11a.57.57,0,0,1,.26,0l.3,0a1.11,1.11,0,0,1,.27.12.32.32,0,0,1,.14.22A.49.49,0,0,1,132.33,14.09Z"/><path class="cls-1" d="M145.62,19.05a12.15,12.15,0,0,1-.13,1.85c-.1.73-.22,1.51-.35,2.33s-.25,1.68-.37,2.55a19.4,19.4,0,0,0-.17,2.44,9.36,9.36,0,0,0,.11,1.44,3.64,3.64,0,0,0,.37,1.18,1.25,1.25,0,0,1,.16.5,1.15,1.15,0,0,1,0,.38c0,.1-.06.2-.09.28a.28.28,0,0,0,0,.22.32.32,0,0,1,0,.25.82.82,0,0,1-.2.26.79.79,0,0,1-.29.18.33.33,0,0,1-.29,0,1.05,1.05,0,0,0-.38-.17.63.63,0,0,0-.24,0l-.17.08a.19.19,0,0,1-.18,0c-.25-.13-.52-.28-.8-.46a1.33,1.33,0,0,1-.57-.56,1.44,1.44,0,0,1-.16-.43c0-.2-.09-.44-.13-.72s-.07-.57-.1-.88-.05-.63-.06-.93A11,11,0,0,1,140,31a8.24,8.24,0,0,1-1.62,1.42,5.91,5.91,0,0,1-1.6.75,5.69,5.69,0,0,1-1.44.21,3.54,3.54,0,0,1-1.18-.17,2.33,2.33,0,0,1-.79-.41,12.2,12.2,0,0,1-1.5-1.72,1.74,1.74,0,0,1-.4-1.07,6.92,6.92,0,0,1,.67-2.55,9.87,9.87,0,0,1,1.4-2.16,12.77,12.77,0,0,1,1.9-1.77,18.78,18.78,0,0,1,2.14-1.41,20,20,0,0,1,2.15-1c.71-.28,1.35-.5,1.93-.68,0-.78-.06-1.46-.1-2a8.05,8.05,0,0,0-.16-1.29,4.13,4.13,0,0,0-1-2,2.22,2.22,0,0,0-1.62-.66,2.07,2.07,0,0,0-1.22.45,4.85,4.85,0,0,0-1.12,1.24,7.62,7.62,0,0,0-1.14,3.94,4.87,4.87,0,0,0,0,.54c0,.17,0,.35.06.54a.17.17,0,0,1-.09.21.81.81,0,0,1-.3.1l-.36.05a2.09,2.09,0,0,0-.33.07.51.51,0,0,1-.17.05.2.2,0,0,1-.13,0,.66.66,0,0,1-.16-.12l-.27-.21a2.32,2.32,0,0,0-.36-.22l-.32-.15a1.33,1.33,0,0,1-.24-.12c-.07,0-.1-.08-.1-.14a7.14,7.14,0,0,1,.6-2.77,9.5,9.5,0,0,1,1.6-2.61,8.79,8.79,0,0,1,2.33-1.93,5.59,5.59,0,0,1,2.83-.76A5.35,5.35,0,0,1,142,13a4.85,4.85,0,0,1,1.52,1,5.32,5.32,0,0,1,1,1.3,7.54,7.54,0,0,1,.62,1.44A9.9,9.9,0,0,1,145.5,18Q145.59,18.63,145.62,19.05ZM141.7,22.9a15.1,15.1,0,0,0-3,1.55,16.58,16.58,0,0,0-1.6,1.22,12.7,12.7,0,0,0-1.49,1.53,8.73,8.73,0,0,0-1.19,1.74,4.39,4.39,0,0,0-.45,1.28,1.51,1.51,0,0,0,0,.84.63.63,0,0,0,.3.36,2.1,2.1,0,0,0,1.4.06,4.64,4.64,0,0,0,1.45-.74,9.63,9.63,0,0,0,1.4-1.27c.46-.5.89-1,1.29-1.54s.77-1.05,1.08-1.56.58-.95.78-1.33Z"/></g></g></g></svg>