<svg xmlns="http://www.w3.org/2000/svg" viewBox="0 0 151.12 125.58"><defs><style>.cls-1{fill:#f9b118;fill-rule:evenodd;}.cls-2{font-size:44.31px;stroke:#084322;stroke-linecap:round;stroke-linejoin:round;stroke-width:1.32px;font-family:Oregano-Regular, Oregano;}.cls-2,.cls-4{fill:#084322;}.cls-3{letter-spacing:-0.01em;}.cls-5,.cls-8{fill:#fff;}.cls-6{fill:#d79d8c;}.cls-7{fill:none;}.cls-7,.cls-8,.cls-9{stroke:#010101;stroke-miterlimit:10;stroke-width:0.44px;}</style></defs><title>Primario</title><g id="Layer_2" data-name="Layer 2"><g id="TEMPLATE"><g id="_03_Logo" data-name="03 Logo"><path class="cls-1" d="M75.27,0A73.93,73.93,0,0,0,1.33,73.94h.76c0-38.56,31-69.82,69.22-69.82s69.22,31.26,69.22,69.82h8.68A73.94,73.94,0,0,0,75.27,0Z"/><text class="cls-2" transform="translate(1.58 109.81)">La Gü<tspan class="cls-3" x="96.79" y="0">e</tspan><tspan x="113.41" y="0">ya</tspan></text><path class="cls-4" d="M126.68,71c-1.06,0-2.11,0-3.39,0,.91-.93,2.18-1.16,3.2-1.66a1,1,0,0,0-.62-.85c-.93.14-1.58.81-2.63.8,0-.33.29-.52.45-.75-.66,0-.85-.37-.85-.8l-.73.62c-.48.22-1,1.13-1.41,0,0-.12-.52-.14-.79-.22l-1.7,2c0,.1,0,.19-.13.21l0-.25.07-1-1.89.06a10.34,10.34,0,0,0-.93,2.3c-.5-.61-.38-1.23-.62-1.76a.53.53,0,0,1,0-.57v-.9a10.49,10.49,0,0,1-4.07-.37l-2.21,2.63-.21-.08V68.55c-.65,0-.92-.53-1.53-.57a11.13,11.13,0,0,0-2.32,3.3c-.31-1,.28-2,.68-2.9-1.34-1.23-2.32-1.42-3.79-.76-.09.73.28,1.55-.86,2.15-.1-.64-.32-1.21.06-1.79a2.78,2.78,0,0,1-1.83-.76,2.76,2.76,0,0,0-2.4-.48,3,3,0,0,0-1.77,1.15c-.36.48-.41.93-1.33.48a.59.59,0,0,0-.85.35,1.72,1.72,0,0,1-.07.21,10.82,10.82,0,0,1,.36,1.71,1.33,1.33,0,0,1,.19,1.07c.56.39.29.94.44,1.41s.56,1.17,1.3.56c.89-.74,2.08-.49,3.07-.83.77-.26.91-.55,1-1a7.52,7.52,0,0,1,.37-1.7,2.13,2.13,0,0,1,0,.83c-.33,1,.5,1.86.84,2.77a.5.5,0,0,0,.55.33c.29,0,.37-.22.51-.38.41-.52,0-1.2.72-1.76.42.52,0,1.2,1.06,1.58,1.46.55,1.58.67,2.31-.39.21-.31.17-.7.92-.67.35,0,.46-.35.36-.62s-.11-.49.37-.63c.18.66-.22,1.25-.26,1.86a3.17,3.17,0,0,0-.06.75.69.69,0,0,0,.68.61.7.7,0,0,0,.78-.52c.23-.66.46-1,1.19-.18.45.5.94.25,1.2-.25l1.47-2.73a4.2,4.2,0,0,1,.18,2.08c0,.44.1.9.83.88s.59-.51.59-.88a7.82,7.82,0,0,1,.17-1.89A3.33,3.33,0,0,0,116,73.25c.23.07.64.2.7.15.72-.72,1.76-.22,2.62-.37a15.44,15.44,0,0,0,2.62-.44c2-.89,4.19-.83,6.31-1.1l0-.25C127.79,70.85,127.21,71,126.68,71Z"/><path class="cls-4" d="M111.82,66.79c0-.88-1.2-1.66.08-2.47.22-.15,0-.32-.06-.42-.2-.29-.29,0-.44.07l-3.36.62a.32.32,0,0,1-.39,0s0-.14.08-.22c-.16-.1.33-.48-.15-.35s-1,.39-1.37-.42c.34,1.64-1,2.31-2.27,3.07a26.68,26.68,0,0,1,1.76-4.09c-1.3.65-2.18,1.69-3.65,2.25-.69-1.14-1.16-2.22.1-3.44a40.09,40.09,0,0,1,3.57-3.57c-3.58,1-5.15,3.37-6.8,5.65-.48-.11-.42-.58-1-.66-.11.49.5,1,0,1.52-.64-.44-.66-1.06-1.1-1.5-.19-.19-.24-.59-.64-.5a.7.7,0,0,0-.62.74c0,1-.9,1.86-.39,3-1.26-1.62-2-3.54-5-4,.16.23.22.4.36.48,1.76,1,1.3,2.12.29,3.29a1.66,1.66,0,0,1-.43.38,5.14,5.14,0,0,1,1.77,2.73,1.72,1.72,0,0,0,.07-.21.59.59,0,0,1,.85-.35c.92.45,1,0,1.33-.48a3,3,0,0,1,1.77-1.15,2.76,2.76,0,0,1,2.4.48,2.78,2.78,0,0,0,1.83.76c.29-.08.33-.48.8-.36,1.47-.66,2.45-.47,3.79.76.52-.47.58-1.19,1.41-1.55.35.4.12.79.23,1.15.61,0,.88.58,1.53.57a8.42,8.42,0,0,1,2.42-2.77v2a10.49,10.49,0,0,0,4.07.37c0-1.74,1.56-2.91,2.88-4.14.33-.3.87-.47,1.25-.78C115.82,63.63,114.11,65.42,111.82,66.79ZM100,66.65c-.9-1.18-.1-2.06.77-2.94C100.66,64.71,101.55,65.85,100,66.65Zm9.16-.85a6.48,6.48,0,0,0-.7.54c-.43.37-.62.06-.61-.17,0-.55.76-.6,1.23-.83a2.15,2.15,0,0,1,.6-.07l.19.19A5.17,5.17,0,0,0,109.11,65.8Z"/><path class="cls-4" d="M141.54,69.51c-.33.36-.94.57-1.12,1,.55.28.93-.09,1.38-.18.46.18.42.58.65.87a1.36,1.36,0,0,1,0,.17l-.06.13h.11l.5,0c.39.21.28.5.25.78l-.05,0a3,3,0,0,0-2,.44,4,4,0,0,1-2.72.83c-.84,0-1.52.31-2.42.25a8.21,8.21,0,0,1-3.38-.81l0,0c-.05-.87-.9-1.57-.9-2.45,0,0-.07,0-.11,0l-.14.11c1.53.34,1.83,1.51,2.82,2.28a2.44,2.44,0,0,0-.13-2.58.78.78,0,0,1,.89-.34c.75.09.33-.21.2-.4l0-.93c.85.32,1.52-.34,2.33-.24.27.18.05.66.57.63s.25-.46.37-.69a1.4,1.4,0,0,0,.06-.28h1.63l-.14.52C140.22,69.32,141,69.34,141.54,69.51Zm-4.31,1.22a.77.77,0,0,0,0,1C137.73,71.33,137.34,71.09,137.23,70.73Zm-.4-.43c.06-.06.18-.13.17-.18a.3.3,0,0,0-.21-.18c-.14,0-.22.06-.19.2Zm-.33-1.06.07-.09s-.07,0-.1,0,0,0-.05.06Z"/><path class="cls-4" d="M138.63,68.17h1.63c2.21-3.22,5.6-5.4,10.26-6.49a.66.66,0,0,0,.6-.46,14.21,14.21,0,0,0-11.22,5.32,9.1,9.1,0,0,0-1.48-2C138,65.8,138.47,67,138.63,68.17Z"/><path class="cls-4" d="M135.3,68.75c.85.32,1.52-.34,2.33-.24-.71-2.08-1.44-4.15-3.64-5.7.8,1.22.69,2.65,1.66,3.83.16.2.17.61-.26.93S135.24,68.35,135.3,68.75Z"/><path class="cls-4" d="M122.84,67.75c0,.43.19.75.85.8a66.26,66.26,0,0,1,6.17-4.13C126.67,64.51,124.82,66.2,122.84,67.75Z"/><path class="cls-4" d="M134.19,70.42a.78.78,0,0,1,.89-.34c.75.09.33-.21.2-.4-.08,0-.21,0-.22,0-.77-1.42-2.7-1.49-4.25-1.93-1.2-.34-2.41.2-3.58.38a2.48,2.48,0,0,0-1.36.4,1,1,0,0,1,.62.85c1.39-.26,2.68-.75,4.13-.91,1.93-.22,2.36-.09,3,1.24A7.57,7.57,0,0,0,134.19,70.42Z"/><path class="cls-4" d="M116.23,69.09l1.89-.06a6.92,6.92,0,0,1,2-2.93,17.45,17.45,0,0,0,1.36-1.76C119.55,64.62,117.2,66.79,116.23,69.09Z"/><path class="cls-4" d="M140.12,68.69c.1.63.84.65,1.42.82a32.23,32.23,0,0,0,5.11-3.41A12.43,12.43,0,0,0,142,68c-.46.25-.95.49-1.39.77A.37.37,0,0,1,140.12,68.69Z"/><path class="cls-4" d="M143.16,72.36c-.33.22-.84.28-1,.64a.48.48,0,0,0,0,.55c.16.18.52.27.66.14,1.12-1,2.34-.2,3.5-.1.74.06,1.21,0,1.46-.59a1.66,1.66,0,0,0-1-.09c-1.66.12-1.66.13-1.3-1-.86-.19-1.49.36-2.27.39Z"/><path class="cls-4" d="M119.91,68.11c.27.08.75.1.79.22.44,1.17.93.26,1.41,0-1-.1-.45-.52-.29-.81a8.73,8.73,0,0,1,2.45-2.64A2.26,2.26,0,0,0,125,64,32.86,32.86,0,0,0,119.91,68.11Z"/><path class="cls-4" d="M141.8,70.35c.46.18.42.58.65.87l3.58-.64v-.27A6.77,6.77,0,0,0,141.8,70.35Z"/><path class="cls-4" d="M132.65,73.1c-1,0-2-.66-2.92.15a4.54,4.54,0,0,0,2.27.49c.61,0,.88-.21.61-.67Z"/><path class="cls-4" d="M143.21,72.33c.78,0,1.41-.58,2.27-.39a2.37,2.37,0,0,0-2.52-.39C143.35,71.76,143.24,72.05,143.21,72.33Z"/><path class="cls-4" d="M128.23,71.24l0,.25a9.85,9.85,0,0,1,2.6.39A4.48,4.48,0,0,0,128.23,71.24Z"/><path class="cls-4" d="M142.41,71.39l-.06.13h.11A.13.13,0,0,0,142.41,71.39Z"/><path class="cls-4" d="M137.21,71.73c.52-.4.13-.64,0-1A.77.77,0,0,0,137.21,71.73Z"/><path class="cls-4" d="M136.6,70.14l.23.16c.06-.06.18-.13.17-.18a.3.3,0,0,0-.21-.18C136.65,69.91,136.57,70,136.6,70.14Z"/><path class="cls-4" d="M136.42,69.2l.08,0,.07-.09s-.07,0-.1,0S136.44,69.18,136.42,69.2Z"/><g id="Vaca1"><path class="cls-5" d="M70.62,65.24a21.44,21.44,0,0,0-1.91-4.76C69.48,62.21,70.09,63.72,70.62,65.24Z"/><path class="cls-5" d="M67.39,62.48A31.18,31.18,0,0,0,69,66.93c-.1-.39-.11-.67,0-.77A24.21,24.21,0,0,0,67.39,62.48Z"/><path class="cls-5" d="M69,59.74a1.91,1.91,0,0,0-.56-.48C68.36,59.47,68.69,59.59,69,59.74Z"/><path class="cls-5" d="M71.23,56.9a4.31,4.31,0,0,0-2.18,1.5A6.8,6.8,0,0,1,71.23,56.9Z"/><path class="cls-5" d="M71.85,69.59q-.06-.37-.15-.84c-.08-.25-.17-.51-.26-.8C71.59,68.48,71.72,69,71.85,69.59Z"/><path class="cls-5" d="M68.12,59.86a.65.65,0,0,0-.9.15A1.7,1.7,0,0,1,68.12,59.86Z"/><path class="cls-5" d="M69.54,61.86c-.05-.38-.07-.8-.16-1.2C69.43,61.15,69.48,61.55,69.54,61.86Z"/><path class="cls-5" d="M78.57,57.44a6.8,6.8,0,0,0-3-.94,9.71,9.71,0,0,1,2.45.86Z"/><path class="cls-5" d="M69.94,62.9a1.08,1.08,0,0,1-.18-.24A.55.55,0,0,0,69.94,62.9Z"/><path class="cls-5" d="M66.17,47.4a8,8,0,0,1,.43,2.32A8,8,0,0,0,66.17,47.4Z"/><path class="cls-5" d="M73.36,62.88c.06-.25.08-.57.12-.85A4.32,4.32,0,0,0,73.36,62.88Z"/><path class="cls-5" d="M66.55,50.77a7.58,7.58,0,0,1-.17.93A7.58,7.58,0,0,0,66.55,50.77Z"/><path class="cls-5" d="M65.6,46.19a7.48,7.48,0,0,1,.57,1.21A7.48,7.48,0,0,0,65.6,46.19Z"/><path class="cls-5" d="M65.68,50.61c0-.6-.08-1.23-.12-1.86C65.6,49.38,65.64,50,65.68,50.61Z"/><path class="cls-5" d="M75,61.91a5.36,5.36,0,0,1,.25.62l.08-.07A3.64,3.64,0,0,0,75,61.91Z"/><path class="cls-5" d="M65.43,46.76c0,.61.08,1.24.12,1.87C65.51,48,65.47,47.37,65.43,46.76Z"/><path class="cls-5" d="M80.12,57.2c3.91-9.62,7.54-6.06,10.66-5.76,3.41.33,5.13-3.82,8.19-2.5,1.59,1,1.16,2.67.9,3.54-1.29,1.74-4,.13-4.67,1.75-.52,1.3-.33,3.18,2.89,3.54,3-.5,2.91,11.89,3.2,12.33,1.71,4.18,1.17-2.09,1.24-2.76-.18-2.55,1.49-4.46,1.57-6.57.47-5.3,3.83-2.9,5.86-7.21,1.38-4.22,3.24-7,5.3-10.34,1.5-4.29,9.79,1.83,6.57-2.43.66-.74,2.33.39,1.61-1.26-1.5-2.58-4-4.39-4.51-6.8.93-2.61-5-3.42-4.15-.06.38,2.45,4.7.94,3.61,3.71.08,2.12,4.34,1.52,3.32,3.28-2,2.23-4.52,1-6.24-.18-.9.06-2.57,1-3.21.07,1.14-5.26.57-2.9-2.71-4.8-3.57,2.3,1.22,5-6,8.08-1.69,2-4.09.07-6.21.52-9.75.19-7-4.34-3.63-8.85-4.3,0-8.3,0-12.26,0-.79.58,2.3,2.78.67,4.55-6.36,4.12.23,5.51-4,10.06-2.92,2.84-16.72-8-3.55-14.27-15.33-3.94-9.34,5.05-10.43,18-1.94,4.2-3.21,5.91-2.84,10.52,1.06,1.14.62-5.93,2.32-7.46,4.64-3.45-.92-11.78,1.9-18-.26,4.88,2.24,9.36,1.68,14.11-1.14,3.29-4.39,4.34-4.42,7.79-.76,5.17,1,12,3.37,11.69a15.38,15.38,0,0,1-.49-9,2.6,2.6,0,0,1,.24-.73C67.7,56.51,73.19,54.06,80.12,57.2Z"/><path class="cls-5" d="M70,62.92c.31,0,.66-.88,1-1.43A6.75,6.75,0,0,0,70,62.92Z"/><path class="cls-5" d="M99.55,61.86s0-.08,0-.11S99.55,61.82,99.55,61.86Z"/><path class="cls-5" d="M99.48,62.34l.06-.39Z"/><path class="cls-5" d="M97.41,58.49h0c0,.76-.08,1.88-.18,3.13A18,18,0,0,0,97.41,58.49Z"/><path class="cls-5" d="M97.51,70.36v0Z"/><polygon class="cls-5" points="99.17 71.3 99.17 71.3 99.17 71.3 99.17 71.3"/><path class="cls-5" d="M97.6,70.51a1.41,1.41,0,0,0,1.57.79A1.5,1.5,0,0,1,97.6,70.51Z"/><path class="cls-5" d="M73.71,61.51a1.17,1.17,0,0,1,.76-.12A.57.57,0,0,0,73.71,61.51Z"/><path class="cls-5" d="M71.92,61.38a5.64,5.64,0,0,1,.56,1.76,1.35,1.35,0,0,0,.34.13C72.44,63,72.32,61.83,71.92,61.38Z"/><path class="cls-5" d="M75.54,62.9c0,.05-.06.07-.1.06s.1.17.16.16Z"/><path class="cls-5" d="M99.44,59.94a1.84,1.84,0,0,0-2-1.45A2.12,2.12,0,0,1,99.44,59.94Z"/><path class="cls-5" d="M76.12,61.5c-.12.27-.21.5-.28.69.14,0,.23,0,.2.22.11-.27.24-.62.39-1.07Z"/><path class="cls-5" d="M98.44,68.49a8.91,8.91,0,0,1,.16-2.64,7.13,7.13,0,0,0-.28,1.47A7.48,7.48,0,0,0,98.44,68.49Z"/><path class="cls-5" d="M77.14,60.91a4.82,4.82,0,0,0,2-1.71A9,9,0,0,1,77.14,60.91Z"/><path class="cls-6" d="M73.35,63.09C72,64.55,72.74,58.32,70,63c-.88-.73,0-2.88-1.65-3.73,2.08-2.81,5.76-3.86,9.72-1.86,3.7.41-.29,3.34-1.94,4.14-.67,1.55-.5,1.73-1,1.19.62-.69,1.42-.83.49.54C75.33,61.6,73.41,59.91,73.35,63.09Z"/><path class="cls-7" d="M73.35,63.09C72,64.55,72.74,58.32,70,63c-.88-.73,0-2.88-1.65-3.73,2.08-2.81,5.76-3.86,9.72-1.86,3.7.41-.29,3.34-1.94,4.14-.67,1.55-.5,1.73-1,1.19.62-.69,1.42-.83.49.54C75.33,61.6,73.41,59.91,73.35,63.09Z"/><path class="cls-8" d="M98.32,67.32c.1-2.28,3.35-8.39-.91-8.84.3,1.78-2.21,13.31,1.76,12.82A15.13,15.13,0,0,1,98.32,67.32Z"/><path class="cls-8" d="M69,66.16c-.65.58,2.94,7.68,3.11,4.48a47.79,47.79,0,0,0-3.65-10.76C64.87,59.45,68.38,63.6,69,66.16Z"/><path class="cls-9" d="M125.13,32.61c-1.35-1-2.82-.06-5-.24-1.23-1-3.37-3.95-5.72-1.35-.87,2.27-2.52,1.28-5,2-.88,1.27-.34,1.64-2.89,1.43-42.79-.16-39.85-3.25-43.28,2.74-.73,5,1,10.3.45,15.76-1.34,3.17-3.74,5.65-2.66,9.77.16.86-1.56,1.47.42,1.42,1.7-2.68-.51,1.43,2.67,6.38.88,1.71.77,3.31,3.42,2.25a5.71,5.71,0,0,1-1.33-2.93c-.75-1-1.39-9.49.32-8.42,1.77,2.29,2.75,13,7,11.56a6.59,6.59,0,0,1-1.24-3.17c.26-.56-2.83-7.54-.41-7.74.47.15-.18,2.11,1.43,1.5,0-.37,1.08-2.67,1.52-.8.15.28.39,1.24,1.17.74s-.46-1.62,1.36-1.93,1.93-2.78,3.47-3.29c4.48,1.52,9.87,1.34,14.77.26,3.53-.52-2.14,15,4.33,14.39.41-.89-1.35-2.43-1.14-4.54,0-1,.82-7.67,1.9-2.7.38,2.29-1.13,8.31,3.48,7.32-2.8-2.52,0-11.94,1.89-15.33a7.75,7.75,0,0,0,5-5.62c2.61-2.86,2.61-9.34,7.21-9.8C119.64,42,121,44,122.9,43c5-2-3.09-5.65.95-8.74C123.93,34,125.94,33.66,125.13,32.61ZM71.7,68.75c1.69,8.26-5-5.21-4.6-8.6C68.82,57.91,70.57,65.37,71.7,68.75Zm4.76-7.49c-1.6,4.63-.47-1-2.85.3-.35.57.11,2.24-1.13,1.58-1.28-6.22-2.46,4.43-3.15-2.93.13-.61-1.68-.61-.56-1.3C70.78,54.14,85.37,57,76.46,61.26Zm22.85,1.83c-.79,2.75-1.51,5-.14,8.21-3.63.59-1.72-9.43-1.76-12.81C99.66,58.38,99.92,60.85,99.31,63.09Zm24.13-23.56c.72,1.65-1,.52-1.61,1.26,3.22,4.26-5.07-1.86-6.57,2.43-2.06,3.36-3.92,6.12-5.3,10.34-2,4.31-5.39,1.91-5.86,7.21-.08,2.11-1.75,4-1.57,6.57-.07.67.47,6.94-1.24,2.76-.29-.44-.24-12.83-3.2-12.33-3.22-.36-3.41-2.24-2.89-3.54.64-1.62,3.38,0,4.67-1.75.26-.87.69-2.55-.9-3.54-3.06-1.32-4.78,2.83-8.19,2.5-3.12-.3-6.75-3.86-10.66,5.76-10.47-4.74-17.68,3.26-14.05,14.2-2.4.33-4.13-6.52-3.37-11.69,0-3.45,3.28-4.5,4.42-7.79.56-4.75-1.94-9.23-1.68-14.11-2.82,6.25,2.74,14.58-1.9,18-1.7,1.53-1.26,8.6-2.32,7.46-.37-4.61.9-6.32,2.84-10.52,1.09-12.9-4.9-21.89,10.43-18C61.32,41.09,75.12,51.94,78,49.1c4.27-4.55-2.32-5.94,4-10.06,1.63-1.77-1.46-4-.67-4.55,4,0,8,0,12.26,0-3.37,4.51-6.12,9,3.63,8.85,2.12-.45,4.52,1.46,6.21-.52,7.26-3.09,2.47-5.78,6-8.08,3.28,1.9,3.85-.46,2.71,4.8.64,1,2.31,0,3.21-.07,1.72,1.13,4.27,2.41,6.24.18,1-1.76-3.24-1.16-3.32-3.28,1.09-2.77-3.23-1.26-3.61-3.71-.84-3.36,5.08-2.55,4.15.06C119.49,35.14,121.94,37,123.44,39.53ZM65.85,53.16c-.13-2-.32-4.91-.49-7.33A7.39,7.39,0,0,1,65.85,53.16Z"/></g><path class="cls-4" d="M91.82,69.67c-1-.79-.39-2.9-3.07-1.86.44.63,1,1.25.15,2.13.1-.44-.32-.47-.51-.66-.69.26-1.41.5-1.58,1.15,0,.19.13.45-.12.53s-.46-.19-.56-.38A9,9,0,0,1,85,67.5c-1-.14-1.68.12-1.63,1.12-.23-.22-.33-.28-.37-.36a1,1,0,0,0-1.12-.47c-.62.09-.35.5-.4.79,0,.12,0,.25,0,.38.23,1,1.42,1.79.74,2.91A10.73,10.73,0,0,0,79,68.3a3.42,3.42,0,0,1-1.36.24c-.2.44,1.25.86,0,1.3-.84.12-1.91.6-1.87-.66l-.42-.29-1.17.24c.18.92,1,1.65,1.37,2.52.21.54.16.8-.7.65s-1.19-.36-1.11-1a1.86,1.86,0,0,0-.17-1.47c-.41,0-.87,0-1.16.26,0,.18,0,.36,0,.54s-.24.25-.43,0a6.24,6.24,0,0,0-1.52-1.88c-.15.32.11.94-.27.93-1.27,0-.72.74-1.07,1.1.56.92.14,1.8-.21,2.68V70.85a2.24,2.24,0,0,0-1.77-.78,7.69,7.69,0,0,1,0,2.91c-1-1.32-.77-2.7-1.49-3.88A2.58,2.58,0,0,0,64,68.37c0,.46.51.87.32,1.34-.29.08-.41-.09-.59-.16s-.53-.18-.65-.12c-.31.17,0,.37.06.58.43,1.27,1.91,2.13,2.36,3.39,0,.08.15.15.24.22.62.48,2,.33,2.06,1.29a2.71,2.71,0,0,1,1.9.46c.45.2.67-.23.73-.57a9.22,9.22,0,0,1,.7-2.6,7.5,7.5,0,0,1,0,1.06c-.13.8.81.9,1.39.95s1.38-.08,1.6-.71c.06-.2-.17-.67.38-.52s1.32-.17,1.46.51c.07.34.07.8.72.74s.7-.55.7-1,0-1.07,0-1.84c.8.77,1.49,1.37,2.07,2a1.32,1.32,0,0,0,1.25.43c.79-.06.39-.53.57-.77,1.15.28,2.18.88,3.42.35.8.92,2.19-.41,3.25.57.89.84,4.17-.4,4.44-1.55-.09-.1-.1-.19,0-.27l-.07-.55c0-.51-.53-1-.21-1.65.16.22.31.42.43.62a10.82,10.82,0,0,0-.36-1.71C92.09,69.14,92,69.37,91.82,69.67ZM64.32,70l-.08-.06.07-.07s.07,0,.07.06S64.34,70,64.32,70Zm9.81,2.9-.08-.05.06-.06s.07,0,.07,0S74.15,72.88,74.13,72.9Z"/><path class="cls-4" d="M90.4,66.2A1.06,1.06,0,0,1,89,65.89a8.35,8.35,0,0,0-2.37-2.1c-.21-.1-.43-.31-.63-.3-2,.07-2.28-1.22-3-2.13a1.42,1.42,0,0,0-1.25-.61,13.35,13.35,0,0,1,1.51,5.85A3.8,3.8,0,0,1,81,64.93a7.88,7.88,0,0,0-3.65-2.87,30.35,30.35,0,0,1,2.7,3.54c.46.74-.12.56-.6.63L81.42,69c0-.13,0-.26,0-.38,0-.29-.22-.7.4-.79a1,1,0,0,1,1.12.47c0,.08.14.14.37.36,0-1,.59-1.26,1.63-1.12a21.58,21.58,0,0,0-.64-3.16c0-.27-.32-.64,0-.79s.74.18,1,.44q1.71,1.91,3.4,3.82c2.68-1,2.1,1.07,3.07,1.86.14-.3.27-.53.35-.74A5.14,5.14,0,0,0,90.4,66.2Z"/><path class="cls-4" d="M67.1,70.07a2.24,2.24,0,0,1,1.77.78.3.3,0,0,0,.21,0c.35-.36-.2-1.13,1.07-1.1.38,0,.12-.61.27-.93l-2.5-4c-.08.67.33,1.08.39,1.54,0,.22.35.54-.17.62s-.54-.24-.63-.49a17.3,17.3,0,0,0-1-2.51c-.38,1.49.08,2.94.23,4.45a2.16,2.16,0,0,1-2-1.16,18.29,18.29,0,0,0-2.3-3.49c-.14-.18-.19-.61-.63-.46s-.07.38,0,.62c.46.93.78,1.89,1.27,2.81.21.41-.26.71-.18.92s.69.52,1.06.78a2.58,2.58,0,0,1,1.64.73A1.62,1.62,0,0,1,67.1,70.07Z"/><path class="cls-4" d="M57,71.47l-.71,0-.24.49c1.85.63,3.84,1.07,5.26,2.25a.94.94,0,0,0,1,.22c.64-.27.07-.69.2-1.07.61.05.61.57,1.07.71a1.06,1.06,0,0,0,1,0,.36.36,0,0,0,.07-.6A13.2,13.2,0,0,0,60.74,70c-.37-.19-.78-.41-1.16-.13s.14.56.35.78a14.45,14.45,0,0,1,2.35,2.41,15.14,15.14,0,0,0-4.73-1.5A.59.59,0,0,1,57,71.47Z"/><path class="cls-4" d="M72.38,70.07c.29-.31.75-.23,1.16-.26.13-.26-.62-1,.61-.68l1.17-.24C74.06,67.22,72.79,65.56,70,65,72.39,66.28,72,68.27,72.38,70.07Z"/><path class="cls-4" d="M77.59,68.54A3.42,3.42,0,0,0,79,68.3a10,10,0,0,0-3.39-4.5,2.41,2.41,0,0,0-2.16-.55s0,.07,0,.08a15.27,15.27,0,0,1,3.51,3.94A6.21,6.21,0,0,1,77.59,68.54Z"/><path class="cls-4" d="M75.74,69.18c0,1.26,1,.78,1.87.66A1.9,1.9,0,0,0,75.74,69.18Z"/><path class="cls-4" d="M92.72,71.71c.18-.6-.18-1.09-.62-1.69-.32.67.18,1.14.21,1.65Z"/><path class="cls-4" d="M114.67,69.06a.53.53,0,0,0,0,.57A.48.48,0,0,0,114.67,69.06Z"/><path class="cls-4" d="M118.05,70.05l0,.25c.16,0,.17-.11.13-.21l-.06-.06Z"/><path class="cls-4" d="M71.94,70.66c.19.2.35.23.43,0Z"/><path class="cls-4" d="M57,71.47a.59.59,0,0,0,.59.09A.75.75,0,0,0,57,71.47Z"/><path class="cls-4" d="M92.38,72.22c-.14.08-.13.17,0,.27C92.48,72.41,92.48,72.32,92.38,72.22Z"/><path class="cls-4" d="M88.39,69.28c-.48-1.17-1.92-1.75-2.79-2.68l-.32.12,1.53,3.71C87,69.78,87.7,69.54,88.39,69.28Z"/><path class="cls-4" d="M73.44,71c-1.06,0-2.11,0-3.39,0,.91-.93,2.18-1.16,3.2-1.66a1,1,0,0,0-.62-.85c-.93.14-1.58.81-2.63.8,0-.33.29-.52.45-.75-.66,0-.85-.37-.85-.8l-.74.62c-.47.22-1,1.13-1.4,0,0-.12-.52-.14-.79-.22l-1.7,2c0,.1,0,.19-.14.21l0-.25c0-.34,0-.68.07-1L63,69.09a10.35,10.35,0,0,0-.94,2.3c-.49-.61-.37-1.23-.61-1.76a.51.51,0,0,1,0-.57v-.9a10.49,10.49,0,0,1-4.07-.37c-.74.88-1.47,1.76-2.21,2.63L55,70.36v2.87c.16,0,.37.15.66.47.44.5.94.25,1.2-.25l1.47-2.73a4.2,4.2,0,0,1,.18,2.08c0,.44.1.9.83.88s.58-.51.59-.88a7.82,7.82,0,0,1,.17-1.89,3.32,3.32,0,0,0,2.63,2.34c.23.07.64.2.69.15.72-.72,1.77-.22,2.63-.37a15.61,15.61,0,0,0,2.62-.44c2-.89,4.19-.83,6.31-1.1l0-.25C74.55,70.85,74,71,73.44,71Z"/><path class="cls-4" d="M58.58,66.79c0-.62-.59-1.2-.49-1.77-.25.32-.51.63-.73,1v1.81a10.49,10.49,0,0,0,4.07.37c0-1.74,1.56-2.91,2.88-4.14.32-.3.87-.47,1.25-.78C62.58,63.63,60.87,65.42,58.58,66.79Z"/><path class="cls-4" d="M69.6,67.75c0,.43.19.75.85.8a66.26,66.26,0,0,1,6.17-4.13C73.43,64.51,71.57,66.2,69.6,67.75Z"/><path class="cls-4" d="M81,70.42a.78.78,0,0,1,.89-.34c.75.09.33-.21.2-.4-.08,0-.21,0-.22,0-.77-1.42-2.7-1.49-4.26-1.93-1.19-.34-2.4.2-3.57.38a2.48,2.48,0,0,0-1.36.4,1,1,0,0,1,.62.85c1.39-.26,2.68-.75,4.12-.91,1.93-.22,2.37-.09,3.06,1.24A6.17,6.17,0,0,0,81,70.42Z"/><path class="cls-4" d="M63,69.09,64.88,69a6.92,6.92,0,0,1,2-2.93,17.45,17.45,0,0,0,1.36-1.76C66.31,64.62,64,66.79,63,69.09Z"/><path class="cls-4" d="M66.67,68.11c.27.08.75.1.79.22.44,1.17.93.26,1.4,0-1-.1-.44-.52-.28-.81A8.73,8.73,0,0,1,71,64.92a2.26,2.26,0,0,0,.75-.88A32.86,32.86,0,0,0,66.67,68.11Z"/><g id="Vaca1-2" data-name="Vaca1"><path class="cls-5" d="M32,64.81A21.55,21.55,0,0,0,30.1,60C30.87,61.77,31.49,63.28,32,64.81Z"/><path class="cls-5" d="M28.79,62a31.08,31.08,0,0,0,1.58,4.45c-.09-.38-.1-.67,0-.76A23.64,23.64,0,0,0,28.79,62Z"/><path class="cls-5" d="M30.37,59.3a2,2,0,0,0-.57-.48C29.76,59,30.09,59.15,30.37,59.3Z"/><path class="cls-5" d="M32.62,56.46A4.24,4.24,0,0,0,30.45,58,6.87,6.87,0,0,1,32.62,56.46Z"/><path class="cls-5" d="M33.25,69.15c0-.25-.09-.53-.16-.84l-.25-.79C33,68,33.12,68.59,33.25,69.15Z"/><path class="cls-5" d="M29.51,59.42a.65.65,0,0,0-.9.15A1.7,1.7,0,0,1,29.51,59.42Z"/><path class="cls-5" d="M30.94,61.42c-.05-.38-.08-.8-.17-1.2C30.82,60.71,30.88,61.11,30.94,61.42Z"/><path class="cls-5" d="M40,57a6.84,6.84,0,0,0-3-.94,9.58,9.58,0,0,1,2.45.86A5.26,5.26,0,0,1,40,57Z"/><path class="cls-5" d="M31.33,62.46a.81.81,0,0,1-.17-.24A.48.48,0,0,0,31.33,62.46Z"/><path class="cls-5" d="M27.56,47A7.4,7.4,0,0,1,28,49.28,7.4,7.4,0,0,0,27.56,47Z"/><path class="cls-5" d="M34.75,62.44a7,7,0,0,0,.12-.85A4.44,4.44,0,0,0,34.75,62.44Z"/><path class="cls-5" d="M27.94,50.33a6,6,0,0,1-.16.93A6,6,0,0,0,27.94,50.33Z"/><path class="cls-5" d="M27,45.75A6.11,6.11,0,0,1,27.56,47,6.11,6.11,0,0,0,27,45.75Z"/><path class="cls-5" d="M27.08,50.17c0-.6-.08-1.23-.13-1.86C27,48.94,27,49.57,27.08,50.17Z"/><path class="cls-5" d="M36.43,61.47a3.22,3.22,0,0,1,.25.62l.08-.07A2.77,2.77,0,0,0,36.43,61.47Z"/><path class="cls-5" d="M26.82,46.32c0,.61.08,1.24.13,1.87C26.9,47.56,26.86,46.93,26.82,46.32Z"/><path class="cls-5" d="M41.52,56.76c3.91-9.62,7.53-6.06,10.65-5.76,3.41.33,5.14-3.82,8.2-2.5,1.59,1,1.16,2.67.89,3.54-1.29,1.74-4,.14-4.67,1.75-.52,1.3-.33,3.18,2.9,3.54,2.95-.5,2.9,11.89,3.2,12.33,1.7,4.18,1.16-2.09,1.23-2.76-.17-2.55,1.5-4.46,1.58-6.56.46-5.31,3.82-2.91,5.86-7.22,1.38-4.22,3.23-7,5.3-10.34,1.49-4.29,9.78,1.84,6.56-2.43.66-.73,2.33.4,1.61-1.26-1.5-2.58-3.94-4.39-4.5-6.8.93-2.61-5-3.42-4.15-.06.37,2.45,4.69.94,3.61,3.71.07,2.12,4.34,1.52,3.31,3.28-2,2.23-4.52,1-6.24-.18-.9.06-2.57,1-3.2.07,1.14-5.26.56-2.89-2.71-4.8-3.58,2.3,1.22,5-6,8.08-1.69,2-4.09.07-6.21.52-9.75.2-7-4.34-3.64-8.85-4.29,0-8.29,0-12.26,0-.79.58,2.31,2.79.67,4.56-6.36,4.12.23,5.5-4,10.06-2.93,2.84-16.72-8-3.56-14.27-15.33-3.95-9.33,5-10.42,18-1.94,4.2-3.22,5.9-2.84,10.51,1.05,1.14.62-5.93,2.31-7.45,4.65-3.45-.91-11.79,1.9-18-.25,4.87,2.24,9.36,1.69,14.1-1.14,3.29-4.39,4.34-4.42,7.79-.76,5.17,1,12,3.36,11.69A15.37,15.37,0,0,1,27,62a2.62,2.62,0,0,1,.23-.73C29.09,56.07,34.59,53.62,41.52,56.76Z"/><path class="cls-5" d="M31.4,62.48c.31,0,.67-.88,1.05-1.43A6.7,6.7,0,0,0,31.4,62.48Z"/><path class="cls-5" d="M60.94,61.42s0-.07,0-.11S61,61.38,60.94,61.42Z"/><path class="cls-5" d="M60.87,61.9a2.63,2.63,0,0,0,.06-.39A2.63,2.63,0,0,1,60.87,61.9Z"/><path class="cls-5" d="M58.81,58.05h0c0,.76-.08,1.88-.19,3.13A18.25,18.25,0,0,0,58.81,58.05Z"/><path class="cls-5" d="M58.91,69.92l0,0Z"/><polygon class="cls-5" points="60.57 70.86 60.57 70.86 60.57 70.86 60.57 70.86"/><path class="cls-5" d="M59,70.07a1.43,1.43,0,0,0,1.58.79A1.52,1.52,0,0,1,59,70.07Z"/><path class="cls-5" d="M35.11,61.08a1.05,1.05,0,0,1,.76-.12A.55.55,0,0,0,35.11,61.08Z"/><path class="cls-5" d="M33.32,60.94a5.93,5.93,0,0,1,.56,1.76,1.29,1.29,0,0,0,.34.14C33.84,62.59,33.71,61.39,33.32,60.94Z"/><path class="cls-5" d="M36.94,62.46s-.07.07-.11.06.1.17.17.16Z"/><path class="cls-5" d="M60.84,59.5a1.86,1.86,0,0,0-2-1.45A2.12,2.12,0,0,1,60.84,59.5Z"/><path class="cls-5" d="M37.51,61.06l-.28.69c.15,0,.23,0,.2.22.11-.27.24-.62.4-1.07A3.18,3.18,0,0,1,37.51,61.06Z"/><path class="cls-5" d="M59.83,68.05A9.63,9.63,0,0,1,60,65.41a7.88,7.88,0,0,0-.28,1.47A10.77,10.77,0,0,0,59.83,68.05Z"/><path class="cls-5" d="M38.53,60.47a4.76,4.76,0,0,0,2-1.71A9,9,0,0,1,38.53,60.47Z"/><path class="cls-6" d="M34.75,62.65c-1.4,1.46-.62-4.77-3.37-.14-.87-.73,0-2.88-1.65-3.73,2.08-2.81,5.77-3.85,9.72-1.86,3.7.41-.29,3.34-1.94,4.14-.66,1.55-.49,1.73-1,1.19.61-.69,1.42-.83.49.54C36.72,61.17,34.8,59.47,34.75,62.65Z"/><path class="cls-7" d="M34.75,62.65c-1.4,1.46-.62-4.77-3.37-.14-.87-.73,0-2.88-1.65-3.73,2.08-2.81,5.77-3.85,9.72-1.86,3.7.41-.29,3.34-1.94,4.14-.66,1.55-.49,1.73-1,1.19.61-.69,1.42-.83.49.54C36.72,61.17,34.8,59.47,34.75,62.65Z"/><path class="cls-8" d="M59.71,66.88c.1-2.28,3.36-8.39-.9-8.83.3,1.77-2.22,13.3,1.76,12.81A15.38,15.38,0,0,1,59.71,66.88Z"/><path class="cls-8" d="M30.37,65.73c-.64.57,2.95,7.67,3.11,4.47a47.71,47.71,0,0,0-3.65-10.75C26.26,59,29.78,63.16,30.37,65.73Z"/><path class="cls-9" d="M86.53,32.17c-1.35-1-2.82-.06-5-.24-1.23-1-3.37-3.95-5.71-1.35-.87,2.27-2.53,1.28-5,2-.87,1.27-.33,1.64-2.89,1.43C25.1,33.88,28,30.8,24.61,36.78c-.73,5,1,10.3.46,15.76-1.35,3.17-3.74,5.65-2.66,9.77.15.86-1.56,1.47.41,1.42,1.7-2.68-.5,1.43,2.68,6.38.88,1.71.77,3.31,3.42,2.26a5.72,5.72,0,0,1-1.33-2.94c-.75-1-1.4-9.49.32-8.41,1.76,2.29,2.75,12.94,7,11.55a6.59,6.59,0,0,1-1.25-3.17c.26-.56-2.83-7.54-.41-7.73.47.14-.18,2.1,1.44,1.49,0-.37,1.07-2.67,1.52-.8.15.28.39,1.24,1.17.74s-.46-1.61,1.35-1.93,1.93-2.78,3.48-3.29c4.48,1.52,9.87,1.34,14.76.26,3.53-.51-2.14,15,4.33,14.4.41-.9-1.34-2.44-1.13-4.55,0-1,.81-7.67,1.89-2.7.38,2.29-1.12,8.31,3.48,7.32-2.8-2.52.05-11.94,1.9-15.33a7.79,7.79,0,0,0,5-5.61c2.61-2.87,2.61-9.35,7.2-9.81,1.33-.29,2.73,1.68,4.6.73,5-2-3.09-5.65.94-8.74C85.33,33.56,87.33,33.22,86.53,32.17ZM33.09,68.31c1.69,8.26-5-5.21-4.6-8.6C30.21,57.47,32,64.93,33.09,68.31Zm4.77-7.49c-1.61,4.63-.47-1-2.85.3-.35.57.1,2.24-1.13,1.58-1.28-6.22-2.46,4.43-3.16-2.93.13-.61-1.68-.61-.56-1.3C32.17,53.7,46.76,56.53,37.86,60.82Zm22.85,1.83c-.79,2.75-1.51,5-.14,8.21-3.64.59-1.72-9.43-1.76-12.81C61.06,57.94,61.31,60.41,60.71,62.65ZM84.83,39.09c.72,1.66-1,.53-1.61,1.26,3.22,4.27-5.07-1.86-6.56,2.43-2.07,3.36-3.92,6.12-5.3,10.34-2,4.31-5.4,1.91-5.86,7.22-.08,2.1-1.75,4-1.58,6.56-.07.67.47,6.94-1.23,2.76-.3-.44-.25-12.83-3.2-12.33-3.23-.36-3.42-2.24-2.9-3.54.64-1.61,3.38,0,4.67-1.75.27-.87.7-2.55-.89-3.54-3.06-1.32-4.79,2.83-8.2,2.5-3.12-.3-6.74-3.86-10.65,5.76C31,52,23.84,60,27.46,71c-2.39.34-4.12-6.52-3.36-11.69,0-3.45,3.28-4.5,4.42-7.79.55-4.74-1.94-9.23-1.69-14.1-2.81,6.24,2.75,14.58-1.9,18-1.69,1.52-1.26,8.59-2.31,7.45-.38-4.61.9-6.31,2.84-10.51,1.09-12.91-4.91-21.9,10.42-18-13.16,6.25.63,17.11,3.56,14.27,4.26-4.56-2.33-5.94,4-10.06,1.64-1.77-1.46-4-.67-4.56,4,.05,8,0,12.26,0-3.36,4.51-6.11,9,3.64,8.85,2.12-.45,4.52,1.46,6.21-.52,7.26-3.09,2.46-5.78,6-8.08,3.27,1.91,3.85-.46,2.71,4.8.63,1,2.3,0,3.2-.07,1.72,1.14,4.27,2.41,6.24.18,1-1.76-3.24-1.16-3.31-3.28,1.08-2.77-3.24-1.26-3.61-3.71-.85-3.36,5.08-2.55,4.15.06C80.89,34.7,83.33,36.51,84.83,39.09ZM27.25,52.73c-.13-2-.33-4.92-.49-7.34A7.41,7.41,0,0,1,27.25,52.73Z"/></g><path class="cls-4" d="M54.94,70.34V68.55c-.65,0-.92-.53-1.53-.57a11.13,11.13,0,0,0-2.32,3.3c-.31-1,.28-2,.68-2.9C50.43,67.15,49.45,67,48,67.62c-.09.73.28,1.55-.86,2.15-.1-.64-.32-1.21.06-1.79a2.78,2.78,0,0,1-1.83-.76,2.76,2.76,0,0,0-2.4-.48,3,3,0,0,0-1.77,1.15c-.36.48-.41.93-1.33.48a.59.59,0,0,0-.85.35,5.93,5.93,0,0,1-.42,1c-1-.79-.39-2.9-3.07-1.86.43.63,1,1.25.15,2.13.1-.44-.32-.47-.51-.66-.7.26-1.41.5-1.58,1.15,0,.19.13.45-.12.53-.4.12-.46-.19-.56-.38a9,9,0,0,1-1.16-3.08c-1-.14-1.68.12-1.63,1.12-.23-.22-.33-.28-.37-.36a1,1,0,0,0-1.12-.47c-.62.09-.35.5-.4.79,0,.12,0,.25,0,.38.23,1,1.42,1.79.74,2.91a10.73,10.73,0,0,0-3.21-3.57,3.42,3.42,0,0,1-1.36.24c-.2.44,1.25.86,0,1.3-.84.12-1.91.6-1.87-.66l-.42-.29-1.17.24c.18.92,1,1.65,1.37,2.52.21.54.16.8-.7.65s-1.19-.36-1.11-1a1.86,1.86,0,0,0-.17-1.47c-.41,0-.87,0-1.16.26,0,.18,0,.36,0,.54s-.24.25-.43,0a6.24,6.24,0,0,0-1.52-1.88c-.15.32.11.94-.27.93-1.27,0-.72.74-1.07,1.1.56.92.14,1.8-.21,2.68V70.85a2.24,2.24,0,0,0-1.77-.78,7.69,7.69,0,0,1,0,2.91c-1-1.32-.77-2.7-1.49-3.88a2.6,2.6,0,0,0-1.64-.73c0,.46.51.87.32,1.34-.29.08-.41-.09-.59-.16s-.53-.18-.65-.12c-.32.17,0,.37.06.58.43,1.27,1.91,2.13,2.35,3.39,0,.08.16.15.25.22.62.48,2,.33,2.06,1.29a2.71,2.71,0,0,1,1.9.46c.45.2.67-.23.73-.57a9.22,9.22,0,0,1,.7-2.6,6.25,6.25,0,0,1,0,1.06c-.13.8.82.9,1.4.95s1.38-.08,1.6-.71c.06-.2-.17-.67.38-.52s1.31-.17,1.46.51c.07.34.07.8.71.74s.7-.55.71-1,0-1.07,0-1.84c.8.77,1.49,1.37,2.07,2a1.32,1.32,0,0,0,1.25.43c.79-.06.39-.53.57-.77,1.15.28,2.18.88,3.42.35.8.92,2.19-.41,3.25.57.89.84,4.17-.4,4.44-1.55-.09-.1-.1-.19,0-.27l-.07-.55c0-.51-.53-1-.21-1.65.44.6.8,1.09.61,1.69.57.39.3.94.45,1.41s.56,1.17,1.3.56,2.08-.49,3.07-.83c.77-.26.9-.55,1-1a7.49,7.49,0,0,1,.36-1.7,2,2,0,0,1,.05.83c-.33,1,.5,1.86.84,2.77a.5.5,0,0,0,.55.33c.29,0,.37-.22.51-.38.41-.52,0-1.2.72-1.76.42.52.05,1.2,1.06,1.58,1.46.55,1.58.67,2.3-.39.22-.31.18-.7.93-.67.35,0,.46-.35.35-.62s-.1-.49.37-.63c.19.66-.21,1.25-.25,1.86a3.17,3.17,0,0,0-.06.75.75.75,0,0,0,1.45.09c.15-.4.29-.68.54-.65V70.36ZM11.08,70,11,69.94l.07-.07s.07,0,.07.06S11.1,70,11.08,70Zm9.81,2.9-.08-.05.06-.06s.07,0,.07,0S20.91,72.88,20.89,72.9Z"/><path class="cls-4" d="M58.66,64.32a.17.17,0,0,0,.08-.22,2.61,2.61,0,0,1-.17.28Z"/><path class="cls-4" d="M58.57,64.38a2.61,2.61,0,0,0,.17-.28,1,1,0,0,0-.14-.2c-.2-.29-.29,0-.44.07l-3.36.62a.32.32,0,0,1-.39,0s.05-.14.07-.22c-.15-.1.33-.48-.14-.35s-1,.39-1.37-.42c.34,1.64-1,2.31-2.27,3.07a26.68,26.68,0,0,1,1.76-4.09c-1.3.65-2.18,1.69-3.66,2.25-.69-1.14-1.15-2.22.11-3.44a38.8,38.8,0,0,1,3.57-3.57c-3.58,1-5.15,3.37-6.8,5.65-.48-.11-.42-.58-1-.66-.12.49.5,1,0,1.52-.64-.44-.66-1.06-1.1-1.5-.19-.19-.24-.59-.64-.5a.7.7,0,0,0-.62.74c0,1-.9,1.86-.39,3-1.26-1.62-2-3.54-5-4,.16.23.21.4.36.48,1.76,1,1.3,2.12.29,3.29a1.12,1.12,0,0,1-1.89.07,8.18,8.18,0,0,0-2.36-2.1c-.21-.1-.43-.31-.63-.3-2,.07-2.28-1.22-3-2.13a1.42,1.42,0,0,0-1.25-.61,13.35,13.35,0,0,1,1.51,5.85,3.77,3.77,0,0,1-2.15-1.67,7.88,7.88,0,0,0-3.65-2.87,30.35,30.35,0,0,1,2.7,3.54c.46.74-.12.56-.6.63L28.18,69c0-.13,0-.26,0-.38.05-.29-.22-.7.4-.79a1,1,0,0,1,1.12.47c0,.08.14.14.37.36-.05-1,.59-1.26,1.63-1.12a21.58,21.58,0,0,0-.64-3.16c-.05-.27-.32-.64.05-.79s.74.18,1,.44q1.71,1.91,3.4,3.82c2.68-1,2.09,1.07,3.07,1.86a5.93,5.93,0,0,0,.42-1,.59.59,0,0,1,.85-.35c.92.45,1,0,1.33-.48A3,3,0,0,1,43,66.74a2.76,2.76,0,0,1,2.4.48,2.78,2.78,0,0,0,1.83.76c.29-.08.33-.48.8-.36,1.47-.66,2.45-.47,3.79.76.52-.47.58-1.19,1.41-1.55.35.4.12.79.23,1.15.61,0,.88.58,1.53.57a8.42,8.42,0,0,1,2.42-2.77V66c.22-.33.48-.64.73-1A1,1,0,0,1,58.57,64.38ZM36.66,66.86c-.29.09-.16-.12-.21-.19s-.07-.16.11-.19.22.11.25.18S36.74,66.84,36.66,66.86Zm2.69-1.59a3.57,3.57,0,0,1,1.19,2.67C40.22,67,38.9,66.42,39.35,65.27Zm7.36,1.38c-.91-1.18-.1-2.06.77-2.94C47.42,64.71,48.31,65.85,46.71,66.65Zm9.15-.85a7.48,7.48,0,0,0-.69.54c-.43.37-.62.06-.62-.17,0-.55.77-.6,1.24-.83a2.12,2.12,0,0,1,.59-.07l.2.19A5.93,5.93,0,0,0,55.86,65.8Z"/><path class="cls-4" d="M13.86,70.07a2.24,2.24,0,0,1,1.77.78.3.3,0,0,0,.21,0c.35-.36-.2-1.13,1.07-1.1.38,0,.12-.61.27-.93l-2.5-4c-.08.67.33,1.08.39,1.54,0,.22.35.54-.17.62s-.54-.24-.63-.49a17.3,17.3,0,0,0-1-2.51c-.38,1.49.08,2.94.23,4.45a2.16,2.16,0,0,1-2-1.16,18.29,18.29,0,0,0-2.3-3.49c-.14-.18-.19-.61-.64-.46s-.06.38.05.62c.46.93.78,1.89,1.27,2.81.21.41-.26.71-.18.92s.68.52,1.06.78a2.6,2.6,0,0,1,1.64.73A1.63,1.63,0,0,1,13.86,70.07Z"/><path class="cls-4" d="M3.72,71.47l-.71,0-.24.49C4.62,72.55,6.61,73,8,74.17a.94.94,0,0,0,1,.22c.64-.27.07-.69.2-1.07.61.05.61.57,1.07.71a1.06,1.06,0,0,0,.95,0,.36.36,0,0,0,.07-.6A13.2,13.2,0,0,0,7.5,70c-.37-.19-.79-.41-1.16-.13s.14.56.35.78A14.45,14.45,0,0,1,9,73.06a15.22,15.22,0,0,0-4.73-1.5A.59.59,0,0,1,3.72,71.47Z"/><path class="cls-4" d="M19.14,70.07c.29-.31.75-.23,1.16-.26.13-.26-.62-1,.61-.68l1.17-.24c-1.26-1.67-2.53-3.33-5.33-3.94C19.15,66.28,18.78,68.27,19.14,70.07Z"/><path class="cls-4" d="M24.35,68.54a3.42,3.42,0,0,0,1.36-.24,10,10,0,0,0-3.39-4.5,2.41,2.41,0,0,0-2.16-.55s0,.07,0,.08a15,15,0,0,1,3.5,3.94A5.8,5.8,0,0,1,24.35,68.54Z"/><path class="cls-4" d="M22.5,69.18c0,1.26,1,.78,1.87.66A1.9,1.9,0,0,0,22.5,69.18Z"/><path class="cls-4" d="M39.47,71.71c.19-.6-.17-1.09-.61-1.69-.32.67.18,1.14.21,1.65Z"/><path class="cls-4" d="M2.77,71.92,3,71.43a4.05,4.05,0,0,0-1.68.08A2,2,0,0,0,2.77,71.92Z"/><path class="cls-4" d="M61.43,69.06a.51.51,0,0,0,0,.57A.48.48,0,0,0,61.43,69.06Z"/><path class="cls-4" d="M64.81,70.05l0,.25c.17,0,.17-.11.14-.21L64.91,70Z"/><path class="cls-4" d="M18.7,70.66c.19.2.35.23.43,0Z"/><path class="cls-4" d="M3.72,71.47a.59.59,0,0,0,.59.09A.75.75,0,0,0,3.72,71.47Z"/><path class="cls-4" d="M39.14,72.22c-.14.08-.13.17,0,.27C39.24,72.41,39.24,72.32,39.14,72.22Z"/><path class="cls-4" d="M35.15,69.28c-.48-1.17-1.92-1.75-2.8-2.68l-.31.12,1.53,3.71C33.74,69.78,34.45,69.54,35.15,69.28Z"/></g></g></g></svg>