<svg xmlns="http://www.w3.org/2000/svg" viewBox="0 0 149.79 124.93"><defs><style>.cls-1{fill:#f9b118;fill-rule:evenodd;}.cls-2,.cls-3{fill:#084322;}.cls-2{stroke:#084322;stroke-linecap:round;stroke-linejoin:round;stroke-width:1.32px;}.cls-4,.cls-7{fill:#fff;}.cls-5{fill:#d79d8c;}.cls-6{fill:none;}.cls-6,.cls-7,.cls-8{stroke:#010101;stroke-miterlimit:10;stroke-width:0.44px;}</style></defs><title>primary outlines</title><g id="Layer_2" data-name="Layer 2"><g id="TEMPLATE"><g id="_03_Logo" data-name="03 Logo"><path class="cls-1" d="M73.94,0A73.93,73.93,0,0,0,0,73.94H.76C.76,35.38,31.75,4.12,70,4.12S139.2,35.38,139.2,73.94h8.68A73.93,73.93,0,0,0,73.94,0Z"/><path class="cls-2" d="M24.1,106.76a1.65,1.65,0,0,1,.13.22.09.09,0,0,1,0,.1.19.19,0,0,1-.09,0,.3.3,0,0,0-.11.07c-.07,0-.09.08-.06.13s0,.12-.07.23-.07.09,0,.14.05.09,0,.12a2.89,2.89,0,0,1-.5.63,1,1,0,0,0-.3,0l-.09.05-.13.16-.11.17a.25.25,0,0,1-.09.11s-.08,0-.12,0a.19.19,0,0,0-.16-.11.18.18,0,0,0-.15.06.93.93,0,0,1-.1.1.19.19,0,0,0-.08.11s0,.07.06.11a1.24,1.24,0,0,0,.3.12c.36.1.43.19.2.29a3.13,3.13,0,0,1-1.26.07l-1.69-.12-1.59-.08-1.61-.06c-.55,0-1.13,0-1.75,0-.83,0-1.7,0-2.61.11s-1.83.12-2.73.2L6.78,110l-2.24.23c-.67.07-1.22.14-1.68.21s-.75.11-.88.14a.67.67,0,0,1-.27,0c-.05,0-.08,0-.1-.12a1.52,1.52,0,0,1-.06-.32,3.83,3.83,0,0,0-.11-.59,2.27,2.27,0,0,0-.18-.44,2.38,2.38,0,0,1-.16-.36,1.64,1.64,0,0,1-.05-.48c0-.1.11-.16.26-.19L4,107.37a31,31,0,0,1-.34-3.5c-.07-1.33-.1-2.78-.1-4.33,0-1.34,0-2.72.09-4.12s.14-2.83.26-4.26c.29-3.6.53-6.37.72-8.29a14,14,0,0,1,.56-3.37c0-.07.07-.14.1-.2a.14.14,0,0,1,.13-.1c.09,0,.15,0,.2,0s.12.07.24,0a.08.08,0,0,0,.07,0,.53.53,0,0,1,.1-.12l0,0a.63.63,0,0,1,.18-.11,3.68,3.68,0,0,1,.47.19l.11.07a.77.77,0,0,1,.26.23c.09.11.16.12.24,0l0,0a.17.17,0,0,1,.13,0l.13.09.11.09a.33.33,0,0,0,.11.08.8.8,0,0,1,.19.18,1,1,0,0,1,.17.41,7.71,7.71,0,0,1,0,1.6c0,.81-.1,1.8-.18,3s-.16,2.51-.25,4-.13,3-.15,4.59q0,1.11-.06,2.37c0,.84-.06,1.71-.09,2.6s0,1.76-.07,2.62,0,1.69,0,2.47c0,.62,0,1.2,0,1.74a9,9,0,0,0,.12,1.4q2.37-.5,5.29-.89a47.74,47.74,0,0,1,6.27-.39,14.22,14.22,0,0,1,2,.12,5.76,5.76,0,0,1,1.35.34,1.94,1.94,0,0,1,.37.16l.5.27c.17.1.33.2.47.3A1.26,1.26,0,0,1,24.1,106.76Z"/><path class="cls-2" d="M38.33,97.14A10.81,10.81,0,0,1,38.2,99c-.1.73-.22,1.51-.34,2.34s-.26,1.68-.37,2.54a17.91,17.91,0,0,0-.18,2.45,9.55,9.55,0,0,0,.11,1.44,4,4,0,0,0,.37,1.18,1.08,1.08,0,0,1,.16.49,1.13,1.13,0,0,1,0,.38c0,.11-.06.2-.09.28a.3.3,0,0,0,0,.23.28.28,0,0,1,0,.25.91.91,0,0,1-.19.26.79.79,0,0,1-.29.17.32.32,0,0,1-.3,0,1,1,0,0,0-.38-.17.43.43,0,0,0-.23,0,.75.75,0,0,0-.18.07.19.19,0,0,1-.18,0c-.25-.13-.51-.28-.8-.45a1.25,1.25,0,0,1-.56-.56,1.38,1.38,0,0,1-.17-.44c-.05-.2-.09-.44-.13-.71s-.06-.57-.09-.89-.05-.62-.07-.93a10.45,10.45,0,0,1-1.52,2.23,8.67,8.67,0,0,1-1.63,1.42,5.58,5.58,0,0,1-1.6.74,5.2,5.2,0,0,1-1.44.22,3.75,3.75,0,0,1-1.17-.17,2.62,2.62,0,0,1-.79-.41,13.14,13.14,0,0,1-1.51-1.72,1.8,1.8,0,0,1-.4-1.07,7.17,7.17,0,0,1,.67-2.56,10.23,10.23,0,0,1,1.41-2.15,11.33,11.33,0,0,1,1.89-1.77,19.7,19.7,0,0,1,2.14-1.41,17.67,17.67,0,0,1,2.16-1c.7-.28,1.34-.51,1.92-.68,0-.78-.06-1.46-.1-2a6.91,6.91,0,0,0-.16-1.29,4.08,4.08,0,0,0-1-2,2.24,2.24,0,0,0-1.63-.66,2.07,2.07,0,0,0-1.22.45,4.6,4.6,0,0,0-1.11,1.23,7.44,7.44,0,0,0-.81,1.8A7.92,7.92,0,0,0,28,98.15c0,.19,0,.37,0,.54s0,.36.07.54a.2.2,0,0,1-.1.22,1.1,1.1,0,0,1-.29.1l-.37,0a1.73,1.73,0,0,0-.32.07l-.18,0a.21.21,0,0,1-.13,0,.92.92,0,0,1-.16-.12,2.71,2.71,0,0,0-.27-.22,2.12,2.12,0,0,0-.36-.21L25.6,99l-.24-.12a.19.19,0,0,1-.1-.14,7.1,7.1,0,0,1,.6-2.77,9.85,9.85,0,0,1,1.6-2.61,8.72,8.72,0,0,1,2.34-1.94,5.62,5.62,0,0,1,2.82-.75,5.56,5.56,0,0,1,2.1.36,5.13,5.13,0,0,1,1.51,1,5.46,5.46,0,0,1,1,1.29,7.51,7.51,0,0,1,.63,1.44,8.91,8.91,0,0,1,.32,1.37A8.43,8.43,0,0,1,38.33,97.14ZM34.42,101a13.48,13.48,0,0,0-1.43.62,15.32,15.32,0,0,0-1.58.92,14.56,14.56,0,0,0-1.6,1.23,12.78,12.78,0,0,0-1.5,1.53A9.48,9.48,0,0,0,27.12,107a5.26,5.26,0,0,0-.45,1.29,1.57,1.57,0,0,0,0,.83.63.63,0,0,0,.31.37,2.13,2.13,0,0,0,1.39,0,4.5,4.5,0,0,0,1.45-.73,9.72,9.72,0,0,0,1.41-1.28c.45-.5.88-1,1.28-1.53s.77-1,1.09-1.56.57-1,.78-1.33Z"/><path class="cls-2" d="M65.94,80.35a8,8,0,0,0-1.83.26,10.33,10.33,0,0,0-2.37.9,13.88,13.88,0,0,0-2.51,1.72A11.49,11.49,0,0,0,57,85.93a15.05,15.05,0,0,0-1.64,3.84,18.57,18.57,0,0,0-.64,5.16,16.92,16.92,0,0,0,.48,4.23,12.68,12.68,0,0,0,1.31,3.23,9.73,9.73,0,0,0,1.9,2.35,10.33,10.33,0,0,0,2.25,1.56,10.29,10.29,0,0,0,4.59,1.11h.47a2.38,2.38,0,0,0,.46,0c.31-.09.66-.2,1.07-.35a8,8,0,0,0,1.29-.58,8.42,8.42,0,0,0,1.32-.91A6.51,6.51,0,0,0,71,104.22a7.43,7.43,0,0,0,.88-1.76,7.89,7.89,0,0,0,.39-2.3A4.66,4.66,0,0,0,72,98.31a3.6,3.6,0,0,0-.62-1l-1.21.15c-.64.09-1.29.21-2,.37s-1.29.31-1.88.47-1.13.3-1.6.41a4.25,4.25,0,0,1-1.13.16,2.78,2.78,0,0,1-.6-.11,2.34,2.34,0,0,1-.53-.21,1.23,1.23,0,0,1-.45-.4.32.32,0,0,1-.17.07l-.11,0a.14.14,0,0,1-.08-.09,1.31,1.31,0,0,1,0-.15,3.13,3.13,0,0,1,0-.59.52.52,0,0,1-.24-.08.57.57,0,0,1-.11-.11l-.19-.35a.25.25,0,0,1,0-.3,1,1,0,0,1,.37-.27,6.57,6.57,0,0,1,1.1-.44c.52-.18,1.22-.38,2.11-.6s2-.47,3.41-.75c1.79-.33,3.34-.55,4.65-.67s2.38-.17,3.2-.17c.46,0,.84,0,1.13,0a5.43,5.43,0,0,1,.65.08,2.47,2.47,0,0,1,.8.31,3.62,3.62,0,0,1,.47.38,1,1,0,0,1,.17.22,2.75,2.75,0,0,1,.37.71.6.6,0,0,1,.33.26.21.21,0,0,1,0,.15c0,.13-.07.3-.11.52s-.11.33-.19.33a3.43,3.43,0,0,1-.45,0l-1,.06-1.44.1c-.54,0-1.12.08-1.72.14a4.51,4.51,0,0,1,.73,1.19,5.24,5.24,0,0,1,.41,1.52,5.06,5.06,0,0,1-.2,2.25,9.59,9.59,0,0,1-1.1,2.35,12.09,12.09,0,0,1-1.88,2.24,13.19,13.19,0,0,1-5.56,3.17,12.17,12.17,0,0,1-3.44.48,16.62,16.62,0,0,1-2.17-.15,13.87,13.87,0,0,1-2.33-.53,15.69,15.69,0,0,1-2.41-1,15.2,15.2,0,0,1-2.43-1.58,10.64,10.64,0,0,1-3.44-4.64,18.46,18.46,0,0,1-1.08-7,12.51,12.51,0,0,1,.57-3.63A17.34,17.34,0,0,1,52.23,88a21.41,21.41,0,0,1,2.51-3.44A19,19,0,0,1,58,81.62a17,17,0,0,1,3.85-2,13.59,13.59,0,0,1,4.31-.85,15.09,15.09,0,0,1,1.66.1,18.36,18.36,0,0,1,2,.36,15.74,15.74,0,0,1,2,.64,9.44,9.44,0,0,1,1.78,1,5.62,5.62,0,0,1,1.35,1.31,3.63,3.63,0,0,1,.67,1.7,4.4,4.4,0,0,1-.94,3.48,3.69,3.69,0,0,1-1.09.92,2,2,0,0,1-1,.29,2.47,2.47,0,0,1-.52.28,1.29,1.29,0,0,1-.39.11.58.58,0,0,1-.32,0,.61.61,0,0,1-.24-.17.58.58,0,0,1-.12-.25.68.68,0,0,1,.08-.38,6.48,6.48,0,0,1-.79.76,2.34,2.34,0,0,1-.51.32.58.58,0,0,1-.37,0c-.13-.09-.15-.17-.07-.24l.4-.33a7.39,7.39,0,0,0,.65-.59,3.58,3.58,0,0,0,.65-1c.08-.3.16-.65.24-1a6,6,0,0,0,.12-1.21,4.38,4.38,0,0,0-.43-2,3.93,3.93,0,0,0-1.16-1.39,4.66,4.66,0,0,0-1.7-.78A9.12,9.12,0,0,0,65.94,80.35Z"/><path class="cls-2" d="M94.78,109.68q0,.19-.33.48a1.18,1.18,0,0,1-.82.28,1.89,1.89,0,0,1-.55-.15,3.94,3.94,0,0,1-.83-.44,3.79,3.79,0,0,1-.78-.72,1.55,1.55,0,0,1-.37-1,3.85,3.85,0,0,1,0-.66V104.6c0-.71,0-1.42,0-2.14-.1.52-.23,1.05-.37,1.61a12.71,12.71,0,0,1-.54,1.65,15.94,15.94,0,0,1-.76,1.63,12.47,12.47,0,0,1-1,1.53,4,4,0,0,1-.64.66,5.26,5.26,0,0,1-.66.46,3.47,3.47,0,0,1-.61.27,1.81,1.81,0,0,1-.43.08,1.22,1.22,0,0,1-.4-.18c-.21-.12-.45-.28-.74-.48s-.58-.41-.89-.64-.62-.48-.91-.72-.55-.46-.78-.67a4.51,4.51,0,0,1-.5-.51,2.24,2.24,0,0,1-.27-.73,10.22,10.22,0,0,1-.2-1.28c-.06-.5-.11-1.07-.14-1.71s-.06-1.31-.06-2c0-.39,0-.9,0-1.52s0-1.28.09-2,.1-1.43.16-2.16.15-1.39.24-2a8.17,8.17,0,0,1,.34-1.43c.13-.37.28-.55.45-.55a3,3,0,0,1,.61.1A4.24,4.24,0,0,0,84,92a2.85,2.85,0,0,0,.94-.11,1.17,1.17,0,0,1,.4-.12c.15,0,.22.12.22.36v.21a.74.74,0,0,1,0,.23c0,.08,0,.31-.1.67s-.11.82-.18,1.38-.15,1.2-.22,1.9-.14,1.43-.21,2.19-.12,1.54-.16,2.32-.06,1.52-.06,2.22c0,.48,0,1,0,1.43a11.79,11.79,0,0,0,.12,1.3,3.64,3.64,0,0,0,.24.94q.15.36.36.36a1.3,1.3,0,0,0,.56-.19,3.37,3.37,0,0,0,.84-.74,10.7,10.7,0,0,0,1.07-1.6A24.45,24.45,0,0,0,89.08,102c.45-1.15.93-2.55,1.42-4.22s1-3.65,1.53-6a.1.1,0,0,1,.07-.1.54.54,0,0,1,.19,0c.19,0,.42,0,.71,0a7.34,7.34,0,0,1,.84.16,4.68,4.68,0,0,1,.69.22c.19.09.29.18.29.28,0,.65,0,1.36-.09,2.12s-.12,1.56-.19,2.37-.14,1.65-.2,2.5-.08,1.7-.08,2.53c0,1.5,0,2.93.14,4.3S94.62,108.7,94.78,109.68ZM87.7,85.58a2.84,2.84,0,0,1,0,.58,2.66,2.66,0,0,1-.13.61,1.75,1.75,0,0,1-.26.53.88.88,0,0,1-.4.32,3,3,0,0,1-1,.23,1.32,1.32,0,0,1-.57-.12,2.52,2.52,0,0,1-.49-.29,1.69,1.69,0,0,1-.6-.53,1.12,1.12,0,0,1-.24-.66,2.13,2.13,0,0,1,.11-.6,4.44,4.44,0,0,1,.28-.7,4.65,4.65,0,0,1,.38-.62,1.31,1.31,0,0,1,.4-.39,1,1,0,0,1,.48-.18H86a1.74,1.74,0,0,1,1.26.42A2,2,0,0,1,87.7,85.58Zm2.71.41a3.19,3.19,0,0,1,.14-1.19,1.93,1.93,0,0,1,.26-.54.78.78,0,0,1,.4-.32,3.74,3.74,0,0,1,.56-.16,2,2,0,0,1,.45-.06,1.32,1.32,0,0,1,.59.12,4,4,0,0,1,.47.29,1.82,1.82,0,0,1,.61.52,1.12,1.12,0,0,1,.24.67,2.13,2.13,0,0,1-.11.61,5,5,0,0,1-.28.69,6.16,6.16,0,0,1-.37.63,1,1,0,0,1-.39.37,1.29,1.29,0,0,1-.49.18h-.35a1.79,1.79,0,0,1-1.25-.41A2,2,0,0,1,90.41,86Z"/><path class="cls-2" d="M112.69,101.92c0,.16,0,.34,0,.56s0,.46,0,.73a6.9,6.9,0,0,1-.15,1.29,8.61,8.61,0,0,1-.49,1.61,8.87,8.87,0,0,1-.89,1.69,6.8,6.8,0,0,1-3.32,2.61,7.21,7.21,0,0,1-2.55.42,7.38,7.38,0,0,1-2.6-.49,7.06,7.06,0,0,1-2.43-1.51,8.15,8.15,0,0,1-1.79-2.62,9.31,9.31,0,0,1-.7-3.8,10.41,10.41,0,0,1,.35-2.72,13.62,13.62,0,0,1,1-2.53,12.14,12.14,0,0,1,1.41-2.2,11.22,11.22,0,0,1,1.71-1.73,8.32,8.32,0,0,1,1.86-1.14,4.83,4.83,0,0,1,1.87-.41,6,6,0,0,1,2.61.5,4.74,4.74,0,0,1,1.63,1.23,4.51,4.51,0,0,1,.86,1.57,5.58,5.58,0,0,1,.25,1.51A4.3,4.3,0,0,1,111,98a4.72,4.72,0,0,1-1,1.58,5.62,5.62,0,0,1-1.86,1.25,6.88,6.88,0,0,1-2.81.51,4.8,4.8,0,0,1-2.83-.88,4.6,4.6,0,0,1-.92-.82,6.9,6.9,0,0,1-.64-.83,11.27,11.27,0,0,0-.39,3.14,6.36,6.36,0,0,0,.36,2.21,4.81,4.81,0,0,0,1,1.68,4.24,4.24,0,0,0,1.49,1.06,4.78,4.78,0,0,0,1.91.37,5.54,5.54,0,0,0,2.27-.44,6.51,6.51,0,0,0,1.7-1.12,8.19,8.19,0,0,0,1.25-1.46c.36-.53.66-1,.92-1.45s.49-.8.68-1.09.39-.43.58-.41.13.07.13.21a.78.78,0,0,1,0,.22A1,1,0,0,1,112.69,101.92Zm-6.51-8a4,4,0,0,0-1,.16,5.32,5.32,0,0,0-1.3.57,7,7,0,0,0-1.35,1.12,6.39,6.39,0,0,0-1.17,1.78l.53-.26a.89.89,0,0,1,.32-.1s.07,0,.13.08a2.91,2.91,0,0,0,1.24,1.2,3.83,3.83,0,0,0,1.68.36,2.86,2.86,0,0,0,1.26-.25,2.67,2.67,0,0,0,.88-.64,2.38,2.38,0,0,0,.5-.85,3,3,0,0,0,.15-.92,2.54,2.54,0,0,0-.5-1.61A1.62,1.62,0,0,0,106.18,93.87Z"/><path class="cls-2" d="M132.72,92.18l-.44.73-1,1.55c-.39.63-.84,1.34-1.33,2.15l-1.54,2.48-1.57,2.57-1.46,2.39c-.45.74-.85,1.4-1.18,2s-.57,1-.73,1.3-.38.73-.67,1.34-.62,1.3-1,2.08l-1.2,2.55c-.42.91-.85,1.82-1.28,2.73s-.83,1.81-1.23,2.66-.75,1.63-1.06,2.31l-.77,1.67c-.2.44-.31.71-.34.79a1.45,1.45,0,0,1-.36.62,1.31,1.31,0,0,1-.47.19.24.24,0,0,1-.23-.09.93.93,0,0,1-.15-.26l-.13-.27c-.05-.08-.1-.13-.16-.14s-.29-.07-.31-.12l-.14-.29a.23.23,0,0,0-.13-.1h-.13l-.1,0a.19.19,0,0,1,0-.13c0-.25,0-.49.08-.74a6.05,6.05,0,0,1,.09-.67,7.24,7.24,0,0,1,.45-1c.25-.51.56-1.13.94-1.85s.79-1.54,1.26-2.43l1.43-2.7,1.43-2.72c.47-.89.89-1.71,1.27-2.44-.19-.4-.44-.93-.76-1.57s-.67-1.36-1-2.14l-1.2-2.5c-.43-.88-.84-1.75-1.25-2.62L115.16,97c-.38-.81-.71-1.53-1-2.17s-.5-1.18-.66-1.6a3.56,3.56,0,0,1-.24-.79.66.66,0,0,1,.11-.36.33.33,0,0,1,.23-.1.72.72,0,0,1,.3.07l.34.13.5.2a.24.24,0,0,0,.34-.07c0-.12.17-.18.37-.19a1.06,1.06,0,0,1,.5.1s.08.06.12,0a.24.24,0,0,0,.1-.08l.13-.14a.62.62,0,0,1,.19-.12.58.58,0,0,1,.43.08,1.29,1.29,0,0,1,.37.57c.07.21.22.59.44,1.12s.49,1.16.8,1.86.65,1.47,1,2.29.75,1.61,1.12,2.4l1.08,2.21c.33.7.63,1.27.89,1.73.39-.72.82-1.48,1.27-2.3s.92-1.63,1.38-2.44.94-1.62,1.4-2.39.9-1.5,1.31-2.17.77-1.24,1.09-1.74.58-.88.78-1.14.17-.23.17-.28.06-.08.18-.13l.22-.08a.56.56,0,0,1,.32,0,1.37,1.37,0,0,0,.3,0,.19.19,0,0,1,.17.13.11.11,0,0,0,.13,0l.21-.07.25-.11a.39.39,0,0,1,.26,0l.3,0a.66.66,0,0,1,.27.12.32.32,0,0,1,.14.22A.5.5,0,0,1,132.72,92.18Z"/><path class="cls-2" d="M146,97.14a12,12,0,0,1-.13,1.84c-.1.73-.22,1.51-.35,2.34s-.25,1.68-.37,2.54a19.55,19.55,0,0,0-.17,2.45,9.55,9.55,0,0,0,.11,1.44,3.72,3.72,0,0,0,.37,1.18,1.21,1.21,0,0,1,.16.49,1.13,1.13,0,0,1,0,.38c0,.11-.06.2-.09.28a.3.3,0,0,0,0,.23.32.32,0,0,1,0,.25,1,1,0,0,1-.2.26.66.66,0,0,1-.29.17.3.3,0,0,1-.29,0,1.05,1.05,0,0,0-.38-.17.48.48,0,0,0-.24,0l-.17.07a.19.19,0,0,1-.18,0c-.25-.13-.52-.28-.8-.45a1.33,1.33,0,0,1-.57-.56,1.73,1.73,0,0,1-.16-.44c-.05-.2-.09-.44-.13-.71s-.07-.57-.1-.89,0-.62-.06-.93a10.84,10.84,0,0,1-1.53,2.23,9,9,0,0,1-1.62,1.42,5.58,5.58,0,0,1-1.6.74,5.32,5.32,0,0,1-1.44.22,3.81,3.81,0,0,1-1.18-.17,2.75,2.75,0,0,1-.79-.41,12.91,12.91,0,0,1-1.5-1.72,1.74,1.74,0,0,1-.4-1.07,7,7,0,0,1,.67-2.56,9.5,9.5,0,0,1,1.41-2.15,11.33,11.33,0,0,1,1.89-1.77,18.78,18.78,0,0,1,2.14-1.41,18.3,18.3,0,0,1,2.15-1c.71-.28,1.35-.51,1.93-.68,0-.78-.06-1.46-.1-2a7.89,7.89,0,0,0-.16-1.29,4.09,4.09,0,0,0-1-2,2.2,2.2,0,0,0-1.62-.66A2.07,2.07,0,0,0,138,93a4.8,4.8,0,0,0-1.12,1.23A7.44,7.44,0,0,0,136,96a7.54,7.54,0,0,0-.33,2.14,4.7,4.7,0,0,0,0,.54c0,.18,0,.36.06.54a.18.18,0,0,1-.09.22,1.05,1.05,0,0,1-.3.1l-.36,0a2.09,2.09,0,0,0-.33.07l-.17,0a.2.2,0,0,1-.13,0,.66.66,0,0,1-.16-.12l-.27-.22a3.35,3.35,0,0,0-.36-.21l-.32-.15-.24-.12a.17.17,0,0,1-.1-.14,7.1,7.1,0,0,1,.6-2.77,9.6,9.6,0,0,1,1.6-2.61,8.83,8.83,0,0,1,2.33-1.94,5.68,5.68,0,0,1,2.83-.75,5.54,5.54,0,0,1,2.09.36,5.06,5.06,0,0,1,1.52,1,5.46,5.46,0,0,1,1,1.29,8.12,8.12,0,0,1,.62,1.44,9,9,0,0,1,.33,1.37Q146,96.72,146,97.14ZM142.09,101a14.43,14.43,0,0,0-1.43.62,16.46,16.46,0,0,0-1.58.92,16.74,16.74,0,0,0-1.6,1.23,12.7,12.7,0,0,0-1.49,1.53A9,9,0,0,0,134.8,107a4.87,4.87,0,0,0-.45,1.29,1.47,1.47,0,0,0,0,.83.65.65,0,0,0,.3.37,2.16,2.16,0,0,0,1.4,0,4.6,4.6,0,0,0,1.45-.73,9.18,9.18,0,0,0,1.4-1.28q.69-.75,1.29-1.53c.4-.53.77-1,1.08-1.56s.58-1,.78-1.33Z"/><path class="cls-3" d="M125.35,71c-1.06,0-2.11,0-3.39,0,.91-.93,2.18-1.16,3.2-1.66a1,1,0,0,0-.62-.85c-.93.14-1.58.81-2.62.8,0-.33.28-.52.44-.75-.65,0-.85-.37-.85-.8l-.73.62c-.48.22-1,1.13-1.41,0,0-.12-.52-.14-.79-.22l-1.7,2c0,.1,0,.19-.13.21l0-.25.07-1-1.89.06a10.34,10.34,0,0,0-.93,2.3c-.5-.61-.38-1.23-.62-1.76a.53.53,0,0,1,0-.57v-.9a10.49,10.49,0,0,1-4.07-.37l-2.21,2.63-.21-.08V68.55c-.65,0-.92-.53-1.53-.57a11.31,11.31,0,0,0-2.32,3.3c-.31-1,.28-2,.68-2.9-1.34-1.23-2.32-1.42-3.79-.76-.09.73.28,1.55-.86,2.15-.1-.64-.32-1.21.06-1.79a2.78,2.78,0,0,1-1.83-.76,2.76,2.76,0,0,0-2.4-.48,3,3,0,0,0-1.76,1.15c-.37.48-.42.93-1.34.48a.59.59,0,0,0-.85.35,1.72,1.72,0,0,1-.07.21,10.82,10.82,0,0,1,.36,1.71,1.33,1.33,0,0,1,.19,1.07c.56.39.3.94.44,1.41s.56,1.17,1.3.56c.89-.74,2.08-.49,3.07-.83.77-.26.91-.55,1-1a7.52,7.52,0,0,1,.37-1.7,2.13,2.13,0,0,1,0,.83c-.33,1,.5,1.86.84,2.77a.51.51,0,0,0,.55.33c.29,0,.38-.22.51-.38.41-.52,0-1.2.73-1.76.41.52.05,1.2,1.05,1.58,1.46.55,1.58.67,2.31-.39.21-.31.17-.7.92-.67.35,0,.46-.35.36-.62s-.11-.49.37-.63c.18.66-.22,1.25-.26,1.86a3.8,3.8,0,0,0-.06.75.69.69,0,0,0,.68.61.7.7,0,0,0,.78-.52c.23-.66.46-1,1.19-.18.45.5.94.25,1.2-.25l1.47-2.73a4.2,4.2,0,0,1,.18,2.08c0,.44.1.9.83.88s.59-.51.59-.88a7.82,7.82,0,0,1,.17-1.89,3.33,3.33,0,0,0,2.63,2.34c.23.07.64.2.7.15.72-.72,1.76-.22,2.62-.37a15.44,15.44,0,0,0,2.62-.44c2-.89,4.19-.83,6.31-1.1l0-.25C126.47,70.85,125.88,71,125.35,71Z"/><path class="cls-3" d="M110.5,66.79c0-.88-1.21-1.66.07-2.47.23-.15,0-.32-.06-.42-.2-.29-.29,0-.44.07l-3.36.62a.32.32,0,0,1-.39,0s.05-.14.08-.22c-.16-.1.33-.48-.15-.35s-1,.39-1.37-.42c.34,1.64-1,2.31-2.27,3.07a26.68,26.68,0,0,1,1.76-4.09c-1.3.65-2.18,1.69-3.65,2.25-.69-1.14-1.15-2.22.1-3.44a40.09,40.09,0,0,1,3.57-3.57c-3.58,1-5.14,3.37-6.8,5.65-.48-.11-.42-.58-1-.66-.11.49.5,1,0,1.52-.63-.44-.66-1.06-1.1-1.5-.19-.19-.24-.59-.64-.5a.7.7,0,0,0-.62.74c0,1-.9,1.86-.39,3-1.26-1.62-2-3.54-5-4,.17.23.22.4.36.48,1.76,1,1.3,2.12.29,3.29a1.66,1.66,0,0,1-.43.38,5.14,5.14,0,0,1,1.77,2.73,1.72,1.72,0,0,0,.07-.21.59.59,0,0,1,.85-.35c.92.45,1,0,1.34-.48a3,3,0,0,1,1.76-1.15,2.76,2.76,0,0,1,2.4.48,2.78,2.78,0,0,0,1.83.76c.29-.08.34-.48.8-.36,1.47-.66,2.45-.47,3.79.76.52-.47.58-1.19,1.41-1.55.35.4.12.79.23,1.15.61,0,.88.58,1.53.57a8.42,8.42,0,0,1,2.42-2.77v2a10.49,10.49,0,0,0,4.07.37c0-1.74,1.56-2.91,2.88-4.14.33-.3.87-.47,1.25-.78C114.49,63.63,112.78,65.42,110.5,66.79Zm-11.88-.14c-.9-1.18-.1-2.06.77-2.94C99.33,64.71,100.22,65.85,98.62,66.65Zm9.16-.85a6.48,6.48,0,0,0-.7.54c-.43.37-.62.06-.61-.17,0-.55.76-.6,1.23-.83a2.15,2.15,0,0,1,.6-.07l.19.19A5.17,5.17,0,0,0,107.78,65.8Z"/><path class="cls-3" d="M140.21,69.51c-.33.36-.94.57-1.12,1,.55.28.93-.09,1.38-.18.46.18.42.58.65.87a1.36,1.36,0,0,1,0,.17l-.06.13h.11l.5,0c.39.21.28.5.25.78l0,0a3,3,0,0,0-2,.44,4,4,0,0,1-2.72.83c-.84,0-1.52.31-2.42.25a8.21,8.21,0,0,1-3.38-.81l0,0c0-.87-.9-1.57-.9-2.45,0,0-.07,0-.1,0s0,0-.15.11c1.53.34,1.83,1.51,2.82,2.28a2.44,2.44,0,0,0-.13-2.58.78.78,0,0,1,.89-.34c.75.09.33-.21.2-.4l0-.93c.85.32,1.52-.34,2.33-.24.27.18,0,.66.57.63s.25-.46.37-.69a2.86,2.86,0,0,0,.07-.28h1.62l-.14.52C138.89,69.32,139.63,69.34,140.21,69.51Zm-4.31,1.22a.8.8,0,0,0,0,1C136.4,71.33,136,71.09,135.9,70.73Zm-.4-.43c.06-.06.18-.13.17-.18a.3.3,0,0,0-.21-.18c-.14,0-.22.06-.19.2Zm-.33-1.06.07-.09s-.07,0-.1,0,0,0,0,.06Z"/><path class="cls-3" d="M137.31,68.17h1.62c2.21-3.22,5.6-5.4,10.26-6.49a.66.66,0,0,0,.6-.46,14.21,14.21,0,0,0-11.22,5.32,9.1,9.1,0,0,0-1.48-2C136.65,65.8,137.14,67,137.31,68.17Z"/><path class="cls-3" d="M134,68.75c.85.32,1.52-.34,2.33-.24-.7-2.08-1.44-4.15-3.64-5.7.8,1.22.69,2.65,1.66,3.83.16.2.17.61-.26.93S133.91,68.35,134,68.75Z"/><path class="cls-3" d="M121.51,67.75c0,.43.2.75.85.8a66.26,66.26,0,0,1,6.17-4.13C125.34,64.51,123.49,66.2,121.51,67.75Z"/><path class="cls-3" d="M132.86,70.42a.78.78,0,0,1,.89-.34c.75.09.33-.21.2-.4-.08,0-.21,0-.22,0-.77-1.42-2.7-1.49-4.25-1.93-1.2-.34-2.4.2-3.58.38a2.48,2.48,0,0,0-1.36.4,1,1,0,0,1,.62.85c1.39-.26,2.68-.75,4.13-.91,1.93-.22,2.36-.09,3.05,1.24A7.57,7.57,0,0,0,132.86,70.42Z"/><path class="cls-3" d="M114.9,69.09l1.89-.06a6.92,6.92,0,0,1,2-2.93,17.45,17.45,0,0,0,1.36-1.76C118.22,64.62,115.87,66.79,114.9,69.09Z"/><path class="cls-3" d="M138.79,68.69c.1.63.84.65,1.42.82a32.23,32.23,0,0,0,5.11-3.41A12.43,12.43,0,0,0,140.7,68c-.46.25-.95.49-1.39.77A.37.37,0,0,1,138.79,68.69Z"/><path class="cls-3" d="M141.83,72.36c-.33.22-.84.28-1,.64a.48.48,0,0,0,0,.55c.16.18.52.27.66.14,1.12-1,2.34-.2,3.5-.1.74.06,1.22,0,1.46-.59a1.66,1.66,0,0,0-1-.09c-1.66.12-1.66.13-1.3-1-.86-.19-1.48.36-2.27.39Z"/><path class="cls-3" d="M118.58,68.11c.27.08.75.1.79.22.44,1.17.93.26,1.41,0-1-.1-.45-.52-.29-.81a8.73,8.73,0,0,1,2.45-2.64,2.26,2.26,0,0,0,.75-.88A32.86,32.86,0,0,0,118.58,68.11Z"/><path class="cls-3" d="M140.47,70.35c.46.18.42.58.65.87l3.58-.64v-.27A6.77,6.77,0,0,0,140.47,70.35Z"/><path class="cls-3" d="M131.32,73.1c-1,0-2-.66-2.92.15a4.56,4.56,0,0,0,2.28.49c.6,0,.87-.21.6-.67Z"/><path class="cls-3" d="M141.88,72.33c.79,0,1.41-.58,2.27-.39a2.37,2.37,0,0,0-2.52-.39C142,71.76,141.91,72.05,141.88,72.33Z"/><path class="cls-3" d="M126.9,71.24l0,.25a9.85,9.85,0,0,1,2.6.39A4.46,4.46,0,0,0,126.9,71.24Z"/><path class="cls-3" d="M141.08,71.39l-.06.13h.11A.13.13,0,0,0,141.08,71.39Z"/><path class="cls-3" d="M135.88,71.73c.52-.4.13-.64,0-1A.8.8,0,0,0,135.88,71.73Z"/><path class="cls-3" d="M135.27,70.14l.23.16c.06-.06.18-.13.17-.18a.3.3,0,0,0-.21-.18C135.32,69.91,135.24,70,135.27,70.14Z"/><path class="cls-3" d="M135.09,69.2l.08,0,.07-.09s-.07,0-.1,0S135.11,69.18,135.09,69.2Z"/><g id="Vaca1"><path class="cls-4" d="M69.29,65.24a21.44,21.44,0,0,0-1.91-4.76C68.15,62.21,68.76,63.72,69.29,65.24Z"/><path class="cls-4" d="M66.06,62.48a31.18,31.18,0,0,0,1.59,4.45c-.09-.39-.11-.67,0-.77A23.25,23.25,0,0,0,66.06,62.48Z"/><path class="cls-4" d="M67.64,59.74a1.91,1.91,0,0,0-.56-.48C67,59.47,67.36,59.59,67.64,59.74Z"/><path class="cls-4" d="M69.9,56.9a4.31,4.31,0,0,0-2.18,1.5A6.91,6.91,0,0,1,69.9,56.9Z"/><path class="cls-4" d="M70.52,69.59q-.06-.37-.15-.84c-.08-.25-.17-.51-.26-.8C70.26,68.48,70.39,69,70.52,69.59Z"/><path class="cls-4" d="M66.79,59.86a.65.65,0,0,0-.9.15A1.7,1.7,0,0,1,66.79,59.86Z"/><path class="cls-4" d="M68.21,61.86c0-.38-.07-.8-.16-1.2C68.1,61.15,68.16,61.55,68.21,61.86Z"/><path class="cls-4" d="M77.24,57.44a6.8,6.8,0,0,0-3-.94,9.58,9.58,0,0,1,2.45.86Z"/><path class="cls-4" d="M68.61,62.9a1.08,1.08,0,0,1-.18-.24A.55.55,0,0,0,68.61,62.9Z"/><path class="cls-4" d="M64.84,47.4a8,8,0,0,1,.43,2.32A8,8,0,0,0,64.84,47.4Z"/><path class="cls-4" d="M72,62.88a7.25,7.25,0,0,0,.12-.85A4.32,4.32,0,0,0,72,62.88Z"/><path class="cls-4" d="M65.22,50.77c0,.31-.09.62-.16.93C65.13,51.39,65.18,51.08,65.22,50.77Z"/><path class="cls-4" d="M64.27,46.19a7.48,7.48,0,0,1,.57,1.21A7.48,7.48,0,0,0,64.27,46.19Z"/><path class="cls-4" d="M64.35,50.61c0-.6-.08-1.23-.12-1.86C64.27,49.38,64.31,50,64.35,50.61Z"/><path class="cls-4" d="M73.71,61.91a5.36,5.36,0,0,1,.25.62l.08-.07A3.64,3.64,0,0,0,73.71,61.91Z"/><path class="cls-4" d="M64.1,46.76c0,.61.08,1.24.12,1.87C64.18,48,64.14,47.37,64.1,46.76Z"/><path class="cls-4" d="M78.8,57.2c3.9-9.62,7.53-6.06,10.65-5.76,3.41.33,5.13-3.82,8.19-2.5,1.59,1,1.16,2.67.9,3.54-1.29,1.74-4,.13-4.67,1.75-.52,1.3-.33,3.18,2.89,3.54,3-.5,2.91,11.89,3.2,12.33,1.71,4.18,1.17-2.09,1.24-2.76-.18-2.55,1.5-4.46,1.58-6.57.46-5.3,3.82-2.9,5.85-7.21,1.38-4.22,3.24-7,5.3-10.34,1.5-4.29,9.79,1.83,6.57-2.43.66-.74,2.33.39,1.61-1.26-1.5-2.58-3.94-4.39-4.51-6.8.94-2.61-5-3.42-4.15-.06.38,2.45,4.7.94,3.61,3.71.08,2.12,4.34,1.52,3.32,3.28-2,2.23-4.52,1-6.24-.18-.9.06-2.57,1-3.21.07,1.14-5.26.57-2.9-2.7-4.8-3.58,2.3,1.21,5-6,8.08-1.69,2-4.08.07-6.21.52-9.75.19-7-4.34-3.63-8.85-4.3,0-8.3,0-12.26,0-.79.58,2.3,2.78.67,4.55-6.36,4.12.23,5.51-4,10.06-2.92,2.84-16.72-8-3.55-14.27-15.33-3.94-9.34,5.05-10.42,18-2,4.2-3.22,5.91-2.85,10.52,1.06,1.14.62-5.93,2.32-7.46,4.64-3.45-.92-11.78,1.9-18-.26,4.88,2.24,9.36,1.68,14.11-1.14,3.29-4.39,4.34-4.42,7.79-.76,5.17,1,12,3.37,11.69a15.38,15.38,0,0,1-.49-9,2.6,2.6,0,0,1,.24-.73C66.37,56.51,71.86,54.06,78.8,57.2Z"/><path class="cls-4" d="M68.68,62.92c.31,0,.66-.88,1-1.43A6.7,6.7,0,0,0,68.68,62.92Z"/><path class="cls-4" d="M98.22,61.86s0-.08,0-.11S98.22,61.82,98.22,61.86Z"/><path class="cls-4" d="M98.15,62.34l.06-.39Z"/><path class="cls-4" d="M96.09,58.49h0c0,.76-.09,1.88-.19,3.13A19.44,19.44,0,0,0,96.09,58.49Z"/><path class="cls-4" d="M96.18,70.36v0Z"/><polygon class="cls-4" points="97.84 71.3 97.84 71.3 97.84 71.3 97.84 71.3"/><path class="cls-4" d="M96.27,70.51a1.41,1.41,0,0,0,1.57.79A1.5,1.5,0,0,1,96.27,70.51Z"/><path class="cls-4" d="M72.38,61.51a1.17,1.17,0,0,1,.76-.12A.57.57,0,0,0,72.38,61.51Z"/><path class="cls-4" d="M70.59,61.38a5.64,5.64,0,0,1,.56,1.76,1.51,1.51,0,0,0,.34.13C71.11,63,71,61.83,70.59,61.38Z"/><path class="cls-4" d="M74.21,62.9c0,.05-.06.07-.1.06s.1.17.16.16A1.8,1.8,0,0,0,74.21,62.9Z"/><path class="cls-4" d="M98.11,59.94a1.84,1.84,0,0,0-2-1.45A2.12,2.12,0,0,1,98.11,59.94Z"/><path class="cls-4" d="M74.79,61.5c-.12.27-.21.5-.28.69.14,0,.23,0,.2.22.11-.27.24-.62.4-1.07Z"/><path class="cls-4" d="M97.11,68.49a8.91,8.91,0,0,1,.16-2.64A7.13,7.13,0,0,0,97,67.32,8.91,8.91,0,0,0,97.11,68.49Z"/><path class="cls-4" d="M75.81,60.91a4.76,4.76,0,0,0,2-1.71A9,9,0,0,1,75.81,60.91Z"/><path class="cls-5" d="M72,63.09c-1.39,1.46-.61-4.77-3.36-.14-.88-.73,0-2.88-1.65-3.73,2.08-2.81,5.76-3.86,9.72-1.86,3.7.41-.29,3.34-1.94,4.14-.67,1.55-.5,1.73-1,1.19.62-.69,1.42-.83.49.54C74,61.6,72.08,59.91,72,63.09Z"/><path class="cls-6" d="M72,63.09c-1.39,1.46-.61-4.77-3.36-.14-.88-.73,0-2.88-1.65-3.73,2.08-2.81,5.76-3.86,9.72-1.86,3.7.41-.29,3.34-1.94,4.14-.67,1.55-.5,1.73-1,1.19.62-.69,1.42-.83.49.54C74,61.6,72.08,59.91,72,63.09Z"/><path class="cls-7" d="M97,67.32c.1-2.28,3.35-8.39-.9-8.84.29,1.78-2.22,13.31,1.75,12.82A15.13,15.13,0,0,1,97,67.32Z"/><path class="cls-7" d="M67.65,66.16c-.64.58,2.95,7.68,3.11,4.48a47.79,47.79,0,0,0-3.65-10.76C63.54,59.45,67.06,63.6,67.65,66.16Z"/><path class="cls-8" d="M123.8,32.61c-1.35-1-2.82-.06-5-.24-1.23-1-3.37-3.95-5.72-1.35-.87,2.27-2.52,1.28-5,2-.88,1.27-.34,1.64-2.89,1.43-42.79-.16-39.85-3.25-43.28,2.74-.73,5,1,10.3.45,15.76-1.34,3.17-3.74,5.65-2.65,9.77.15.86-1.57,1.47.41,1.42,1.7-2.68-.51,1.43,2.67,6.38.88,1.71.77,3.31,3.42,2.25a5.8,5.8,0,0,1-1.33-2.93c-.75-1-1.39-9.49.33-8.42,1.76,2.29,2.75,13,7,11.56A6.69,6.69,0,0,1,71,69.84c.26-.56-2.83-7.54-.41-7.74.47.15-.18,2.11,1.43,1.5,0-.37,1.08-2.67,1.52-.8.15.28.39,1.24,1.17.74s-.46-1.62,1.36-1.93,1.93-2.78,3.48-3.29c4.47,1.52,9.86,1.34,14.76.26,3.53-.52-2.14,15,4.33,14.39.41-.89-1.35-2.43-1.14-4.54,0-1,.82-7.67,1.9-2.7.38,2.29-1.13,8.31,3.48,7.32-2.8-2.52,0-11.94,1.89-15.33a7.75,7.75,0,0,0,5-5.62c2.61-2.86,2.61-9.34,7.21-9.8,1.33-.3,2.72,1.68,4.59.73,5-2-3.09-5.65,1-8.74C122.6,34,124.61,33.66,123.8,32.61ZM70.37,68.75c1.69,8.26-5-5.21-4.6-8.6C67.49,57.91,69.24,65.37,70.37,68.75Zm4.76-7.49c-1.6,4.63-.46-1-2.85.3-.35.57.11,2.24-1.13,1.58-1.27-6.22-2.46,4.43-3.15-2.93.13-.61-1.68-.61-.56-1.3C69.45,54.14,84,57,75.13,61.26ZM98,63.09c-.79,2.75-1.51,5-.14,8.21-3.63.59-1.72-9.43-1.75-12.81C98.33,58.38,98.59,60.85,98,63.09Zm24.13-23.56c.72,1.65-1,.52-1.61,1.26,3.22,4.26-5.07-1.86-6.57,2.43-2.06,3.36-3.92,6.12-5.3,10.34-2,4.31-5.39,1.91-5.85,7.21-.08,2.11-1.76,4-1.58,6.57-.07.67.47,6.94-1.24,2.76-.29-.44-.24-12.83-3.2-12.33-3.22-.36-3.41-2.24-2.89-3.54.64-1.62,3.38,0,4.67-1.75.26-.87.69-2.55-.9-3.54-3.06-1.32-4.78,2.83-8.19,2.5-3.12-.3-6.75-3.86-10.65,5.76-10.48-4.74-17.69,3.26-14.06,14.2-2.4.33-4.13-6.52-3.37-11.69,0-3.45,3.28-4.5,4.42-7.79.56-4.75-1.94-9.23-1.68-14.11-2.82,6.25,2.74,14.58-1.9,18-1.7,1.53-1.26,8.6-2.32,7.46-.37-4.61.9-6.32,2.85-10.52,1.08-12.9-4.91-21.89,10.42-18C60,41.09,73.79,51.94,76.71,49.1c4.27-4.55-2.32-5.94,4-10.06,1.63-1.77-1.46-4-.67-4.55,4,0,8,0,12.26,0C89,39,86.22,43.54,96,43.35c2.13-.45,4.52,1.46,6.21-.52,7.26-3.09,2.47-5.78,6-8.08,3.27,1.9,3.84-.46,2.7,4.8.64,1,2.31,0,3.21-.07,1.72,1.13,4.27,2.41,6.24.18,1-1.76-3.24-1.16-3.32-3.28,1.09-2.77-3.23-1.26-3.61-3.71-.84-3.36,5.09-2.55,4.15.06C118.17,35.14,120.61,37,122.11,39.53ZM64.53,53.16c-.14-2-.33-4.91-.49-7.33A7.44,7.44,0,0,1,64.53,53.16Z"/></g><path class="cls-3" d="M90.49,69.67c-1-.79-.39-2.9-3.07-1.86.44.63,1,1.25.15,2.13.1-.44-.32-.47-.51-.66-.69.26-1.41.5-1.58,1.15,0,.19.13.45-.12.53-.4.12-.46-.19-.56-.38a9,9,0,0,1-1.16-3.08c-1-.14-1.67.12-1.63,1.12-.23-.22-.32-.28-.36-.36a1.05,1.05,0,0,0-1.13-.47c-.62.09-.35.5-.4.79,0,.12,0,.25,0,.38.23,1,1.42,1.79.74,2.91a10.73,10.73,0,0,0-3.21-3.57,3.42,3.42,0,0,1-1.36.24c-.2.44,1.26.86,0,1.3-.84.12-1.91.6-1.87-.66L74,68.89l-1.17.24c.18.92,1,1.65,1.37,2.52.21.54.16.8-.7.65s-1.19-.36-1.11-1a1.82,1.82,0,0,0-.17-1.47c-.41,0-.87,0-1.16.26,0,.18,0,.36,0,.54s-.23.25-.43,0a6.24,6.24,0,0,0-1.52-1.88c-.15.32.11.94-.27.93-1.27,0-.72.74-1.07,1.1.56.92.14,1.8-.2,2.68V70.85a2.26,2.26,0,0,0-1.78-.78,7.68,7.68,0,0,1,0,2.91c-1-1.32-.78-2.7-1.49-3.88a2.63,2.63,0,0,0-1.65-.73c0,.46.51.87.32,1.34-.29.08-.41-.09-.58-.16s-.54-.18-.66-.12c-.31.17,0,.37.06.58.43,1.27,1.91,2.13,2.36,3.39,0,.08.15.15.24.22.62.48,2,.33,2.06,1.29a2.71,2.71,0,0,1,1.9.46c.45.2.67-.23.73-.57a8.93,8.93,0,0,1,.71-2.6,7.5,7.5,0,0,1,0,1.06c-.13.8.81.9,1.39.95s1.38-.08,1.6-.71c.06-.2-.17-.67.38-.52s1.32-.17,1.46.51c.07.34.07.8.72.74s.7-.55.7-1,0-1.07,0-1.84c.8.77,1.49,1.37,2.07,2a1.32,1.32,0,0,0,1.25.43c.79-.06.39-.53.58-.77,1.14.28,2.17.88,3.41.35.8.92,2.19-.41,3.25.57.89.84,4.17-.4,4.44-1.55-.09-.1-.1-.19,0-.27L91,71.67c0-.51-.53-1-.21-1.65.16.22.31.42.43.62a10.82,10.82,0,0,0-.36-1.71C90.76,69.14,90.63,69.37,90.49,69.67ZM63,70l-.08-.06.07-.07s.07,0,.07.06S63,70,63,70Zm9.81,2.9-.08-.05.06-.06s.07,0,.07,0S72.82,72.88,72.8,72.9Z"/><path class="cls-3" d="M89.07,66.2a1.06,1.06,0,0,1-1.45-.31,8.45,8.45,0,0,0-2.36-2.1c-.22-.1-.44-.31-.64-.3-2,.07-2.28-1.22-3-2.13a1.42,1.42,0,0,0-1.25-.61,13.35,13.35,0,0,1,1.51,5.85,3.8,3.8,0,0,1-2.15-1.67,7.88,7.88,0,0,0-3.65-2.87,30.35,30.35,0,0,1,2.7,3.54c.46.74-.11.56-.6.63L80.09,69c0-.13,0-.26,0-.38,0-.29-.22-.7.4-.79a1.05,1.05,0,0,1,1.13.47c0,.08.13.14.36.36,0-1,.59-1.26,1.63-1.12A20.34,20.34,0,0,0,83,64.34c0-.27-.32-.64,0-.79s.74.18,1,.44q1.71,1.91,3.4,3.82c2.68-1,2.1,1.07,3.07,1.86.14-.3.27-.53.35-.74A5.14,5.14,0,0,0,89.07,66.2Z"/><path class="cls-3" d="M65.77,70.07a2.26,2.26,0,0,1,1.78.78.28.28,0,0,0,.2,0c.35-.36-.2-1.13,1.07-1.1.38,0,.12-.61.27-.93l-2.5-4c-.07.67.33,1.08.39,1.54,0,.22.35.54-.17.62s-.54-.24-.63-.49a18.43,18.43,0,0,0-1-2.51c-.39,1.49.07,2.94.22,4.45a2.16,2.16,0,0,1-2-1.16,18.29,18.29,0,0,0-2.3-3.49c-.14-.18-.19-.61-.63-.46s-.07.38,0,.62c.46.93.78,1.89,1.27,2.81.21.41-.26.71-.18.92s.69.52,1.06.78a2.63,2.63,0,0,1,1.65.73A1.61,1.61,0,0,1,65.77,70.07Z"/><path class="cls-3" d="M55.63,71.47l-.71,0-.24.49c1.85.63,3.84,1.07,5.26,2.25a.94.94,0,0,0,1,.22c.64-.27.07-.69.2-1.07.61.05.61.57,1.07.71a1.06,1.06,0,0,0,1,0,.36.36,0,0,0,.07-.6A13.2,13.2,0,0,0,59.41,70c-.36-.19-.78-.41-1.16-.13s.14.56.35.78A14.45,14.45,0,0,1,61,73.06a15.14,15.14,0,0,0-4.73-1.5A.59.59,0,0,1,55.63,71.47Z"/><path class="cls-3" d="M71.05,70.07c.29-.31.75-.23,1.16-.26.13-.26-.62-1,.61-.68L74,68.89c-1.26-1.67-2.53-3.33-5.32-3.94C71.06,66.28,70.69,68.27,71.05,70.07Z"/><path class="cls-3" d="M76.26,68.54a3.42,3.42,0,0,0,1.36-.24,9.9,9.9,0,0,0-3.39-4.5,2.41,2.41,0,0,0-2.16-.55s0,.07,0,.08a15.27,15.27,0,0,1,3.51,3.94A5.76,5.76,0,0,1,76.26,68.54Z"/><path class="cls-3" d="M74.41,69.18c0,1.26,1,.78,1.87.66A1.9,1.9,0,0,0,74.41,69.18Z"/><path class="cls-3" d="M91.39,71.71c.18-.6-.18-1.09-.62-1.69-.32.67.18,1.14.21,1.65Z"/><path class="cls-3" d="M113.34,69.06a.53.53,0,0,0,0,.57A.48.48,0,0,0,113.34,69.06Z"/><path class="cls-3" d="M116.72,70.05l0,.25c.16,0,.17-.11.13-.21l-.06-.06Z"/><path class="cls-3" d="M70.61,70.66c.2.2.35.23.43,0Z"/><path class="cls-3" d="M55.63,71.47a.59.59,0,0,0,.59.09A.75.75,0,0,0,55.63,71.47Z"/><path class="cls-3" d="M91.06,72.22c-.15.08-.14.17,0,.27C91.15,72.41,91.15,72.32,91.06,72.22Z"/><path class="cls-3" d="M87.06,69.28c-.48-1.17-1.92-1.75-2.79-2.68l-.32.12,1.53,3.71C85.65,69.78,86.37,69.54,87.06,69.28Z"/><path class="cls-3" d="M72.11,71c-1.06,0-2.11,0-3.39,0,.91-.93,2.18-1.16,3.2-1.66a1,1,0,0,0-.62-.85c-.93.14-1.58.81-2.63.8,0-.33.29-.52.45-.75-.66,0-.85-.37-.85-.8l-.73.62c-.48.22-1,1.13-1.41,0,0-.12-.52-.14-.79-.22l-1.7,2c0,.1,0,.19-.13.21l0-.25c0-.34.05-.68.07-1l-1.89.06a10.34,10.34,0,0,0-.93,2.3c-.5-.61-.38-1.23-.62-1.76a.53.53,0,0,1,0-.57v-.9A10.49,10.49,0,0,1,56,67.79c-.74.88-1.47,1.76-2.21,2.63l-.17-.06v2.87c.16,0,.37.15.66.47.45.5.94.25,1.2-.25L57,70.72a4.2,4.2,0,0,1,.18,2.08c0,.44.1.9.83.88s.59-.51.59-.88a7.82,7.82,0,0,1,.17-1.89,3.33,3.33,0,0,0,2.63,2.34c.23.07.64.2.7.15.72-.72,1.76-.22,2.62-.37a15.44,15.44,0,0,0,2.62-.44c2-.89,4.19-.83,6.31-1.1l0-.25C73.22,70.85,72.64,71,72.11,71Z"/><path class="cls-3" d="M57.25,66.79c0-.62-.59-1.2-.49-1.77-.25.32-.51.63-.73,1v1.81a10.49,10.49,0,0,0,4.07.37c0-1.74,1.56-2.91,2.88-4.14.33-.3.87-.47,1.25-.78C61.25,63.63,59.54,65.42,57.25,66.79Z"/><path class="cls-3" d="M68.27,67.75c0,.43.19.75.85.8a66.26,66.26,0,0,1,6.17-4.13C72.1,64.51,70.25,66.2,68.27,67.75Z"/><path class="cls-3" d="M79.62,70.42a.78.78,0,0,1,.89-.34c.75.09.33-.21.2-.4-.08,0-.21,0-.22,0-.77-1.42-2.7-1.49-4.25-1.93-1.2-.34-2.41.2-3.58.38a2.48,2.48,0,0,0-1.36.4,1,1,0,0,1,.62.85c1.39-.26,2.68-.75,4.13-.91,1.93-.22,2.36-.09,3,1.24A7.57,7.57,0,0,0,79.62,70.42Z"/><path class="cls-3" d="M61.66,69.09,63.55,69a6.92,6.92,0,0,1,2-2.93,17.45,17.45,0,0,0,1.36-1.76C65,64.62,62.63,66.79,61.66,69.09Z"/><path class="cls-3" d="M65.34,68.11c.27.08.75.1.79.22.44,1.17.93.26,1.41,0-1-.1-.45-.52-.29-.81a8.73,8.73,0,0,1,2.45-2.64,2.26,2.26,0,0,0,.75-.88A32.86,32.86,0,0,0,65.34,68.11Z"/><g id="Vaca1-2" data-name="Vaca1"><path class="cls-4" d="M30.68,64.81A21.55,21.55,0,0,0,28.77,60C29.54,61.77,30.16,63.28,30.68,64.81Z"/><path class="cls-4" d="M27.46,62a30,30,0,0,0,1.59,4.45c-.1-.38-.11-.67,0-.76A24.74,24.74,0,0,0,27.46,62Z"/><path class="cls-4" d="M29,59.3a2.05,2.05,0,0,0-.56-.48C28.43,59,28.76,59.15,29,59.3Z"/><path class="cls-4" d="M31.29,56.46A4.28,4.28,0,0,0,29.12,58,6.87,6.87,0,0,1,31.29,56.46Z"/><path class="cls-4" d="M31.92,69.15c0-.25-.09-.53-.16-.84l-.25-.79C31.65,68,31.79,68.59,31.92,69.15Z"/><path class="cls-4" d="M28.18,59.42a.65.65,0,0,0-.9.15A1.72,1.72,0,0,1,28.18,59.42Z"/><path class="cls-4" d="M29.61,61.42c-.05-.38-.08-.8-.17-1.2C29.49,60.71,29.55,61.11,29.61,61.42Z"/><path class="cls-4" d="M38.64,57a6.84,6.84,0,0,0-3-.94,9.65,9.65,0,0,1,2.44.86A5.26,5.26,0,0,1,38.64,57Z"/><path class="cls-4" d="M30,62.46a.81.81,0,0,1-.17-.24A.48.48,0,0,0,30,62.46Z"/><path class="cls-4" d="M26.23,47a7.4,7.4,0,0,1,.43,2.32A7.4,7.4,0,0,0,26.23,47Z"/><path class="cls-4" d="M33.43,62.44c.06-.24.07-.57.11-.85A3.82,3.82,0,0,0,33.43,62.44Z"/><path class="cls-4" d="M26.61,50.33a6,6,0,0,1-.16.93A6,6,0,0,0,26.61,50.33Z"/><path class="cls-4" d="M25.66,45.75A6.11,6.11,0,0,1,26.23,47,6.11,6.11,0,0,0,25.66,45.75Z"/><path class="cls-4" d="M25.75,50.17c0-.6-.08-1.23-.12-1.86C25.67,48.94,25.71,49.57,25.75,50.17Z"/><path class="cls-4" d="M35.1,61.47a3.22,3.22,0,0,1,.25.62l.08-.07A2.77,2.77,0,0,0,35.1,61.47Z"/><path class="cls-4" d="M25.49,46.32c0,.61.09,1.24.13,1.87C25.58,47.56,25.53,46.93,25.49,46.32Z"/><path class="cls-4" d="M40.19,56.76C44.1,47.14,47.72,50.7,50.84,51c3.42.33,5.14-3.82,8.2-2.5,1.59,1,1.16,2.67.89,3.54-1.29,1.74-4,.14-4.67,1.75-.52,1.3-.33,3.18,2.9,3.54,3-.5,2.9,11.89,3.2,12.33,1.7,4.18,1.16-2.09,1.23-2.76-.17-2.55,1.5-4.46,1.58-6.56C64.63,55,68,57.43,70,53.12c1.38-4.22,3.23-7,5.3-10.34,1.5-4.29,9.78,1.84,6.56-2.43.66-.73,2.34.4,1.61-1.26-1.5-2.58-3.94-4.39-4.5-6.8.93-2.61-5-3.42-4.15-.06.37,2.45,4.69.94,3.61,3.71.08,2.12,4.34,1.52,3.32,3.28-2,2.23-4.53,1-6.25-.18-.89.06-2.57,1-3.2.07,1.14-5.26.57-2.89-2.71-4.8-3.57,2.3,1.22,5-6,8.08-1.69,2-4.09.07-6.21.52-9.75.2-7-4.34-3.64-8.85-4.29,0-8.29,0-12.26,0-.79.58,2.31,2.79.67,4.56-6.35,4.12.23,5.5-4,10.06-2.93,2.84-16.72-8-3.56-14.27-15.33-3.95-9.33,5-10.42,18-1.94,4.2-3.22,5.9-2.84,10.51,1.05,1.14.62-5.93,2.31-7.45,4.65-3.45-.91-11.79,1.9-18-.25,4.87,2.24,9.36,1.69,14.1-1.14,3.29-4.39,4.34-4.42,7.79-.76,5.17,1,12,3.37,11.69a15.29,15.29,0,0,1-.49-9,2.62,2.62,0,0,1,.23-.73C27.76,56.07,33.26,53.62,40.19,56.76Z"/><path class="cls-4" d="M30.07,62.48c.31,0,.67-.88,1.05-1.43A6.7,6.7,0,0,0,30.07,62.48Z"/><path class="cls-4" d="M59.62,61.42a.41.41,0,0,1,0-.11A.41.41,0,0,0,59.62,61.42Z"/><path class="cls-4" d="M59.54,61.9a2.63,2.63,0,0,0,.06-.39A2.63,2.63,0,0,1,59.54,61.9Z"/><path class="cls-4" d="M57.48,58.05h0c0,.76-.08,1.88-.19,3.13A18.25,18.25,0,0,0,57.48,58.05Z"/><path class="cls-4" d="M57.58,69.92v0Z"/><polygon class="cls-4" points="59.24 70.86 59.24 70.86 59.24 70.86 59.24 70.86"/><path class="cls-4" d="M57.66,70.07a1.43,1.43,0,0,0,1.58.79A1.52,1.52,0,0,1,57.66,70.07Z"/><path class="cls-4" d="M33.78,61.08a1.05,1.05,0,0,1,.76-.12A.55.55,0,0,0,33.78,61.08Z"/><path class="cls-4" d="M32,60.94a5.93,5.93,0,0,1,.56,1.76,1.29,1.29,0,0,0,.34.14C32.51,62.59,32.38,61.39,32,60.94Z"/><path class="cls-4" d="M35.61,62.46s-.07.07-.11.06.1.17.17.16Z"/><path class="cls-4" d="M59.51,59.5a1.86,1.86,0,0,0-2-1.45A2.12,2.12,0,0,1,59.51,59.5Z"/><path class="cls-4" d="M36.18,61.06l-.28.69c.15,0,.23,0,.2.22.11-.27.24-.62.4-1.07A3.18,3.18,0,0,1,36.18,61.06Z"/><path class="cls-4" d="M58.5,68.05a9.63,9.63,0,0,1,.16-2.64,7.88,7.88,0,0,0-.28,1.47A10.77,10.77,0,0,0,58.5,68.05Z"/><path class="cls-4" d="M37.21,60.47a4.78,4.78,0,0,0,2-1.71A9,9,0,0,1,37.21,60.47Z"/><path class="cls-5" d="M33.42,62.65c-1.4,1.46-.62-4.77-3.37-.14-.87-.73,0-2.88-1.64-3.73,2.07-2.81,5.76-3.85,9.71-1.86,3.7.41-.29,3.34-1.94,4.14-.66,1.55-.49,1.73-1,1.19.62-.69,1.42-.83.49.54C35.4,61.17,33.47,59.47,33.42,62.65Z"/><path class="cls-6" d="M33.42,62.65c-1.4,1.46-.62-4.77-3.37-.14-.87-.73,0-2.88-1.64-3.73,2.07-2.81,5.76-3.85,9.71-1.86,3.7.41-.29,3.34-1.94,4.14-.66,1.55-.49,1.73-1,1.19.62-.69,1.42-.83.49.54C35.4,61.17,33.47,59.47,33.42,62.65Z"/><path class="cls-7" d="M58.38,66.88c.1-2.28,3.36-8.39-.9-8.83.3,1.77-2.22,13.3,1.76,12.81A15.38,15.38,0,0,1,58.38,66.88Z"/><path class="cls-7" d="M29.05,65.73c-.65.57,2.94,7.67,3.1,4.47a48.18,48.18,0,0,0-3.64-10.75C24.93,59,28.45,63.16,29.05,65.73Z"/><path class="cls-8" d="M85.2,32.17c-1.35-1-2.82-.06-5-.24-1.23-1-3.37-3.95-5.71-1.35-.87,2.27-2.53,1.28-5,2-.87,1.27-.33,1.64-2.89,1.43-42.79-.16-39.84-3.24-43.27,2.74-.73,5,1,10.3.45,15.76-1.35,3.17-3.74,5.65-2.66,9.77.15.86-1.56,1.47.41,1.42,1.7-2.68-.5,1.43,2.68,6.38.88,1.71.77,3.31,3.42,2.26a5.8,5.8,0,0,1-1.33-2.94c-.75-1-1.4-9.49.32-8.41,1.77,2.29,2.75,12.94,7,11.55a6.49,6.49,0,0,1-1.24-3.17c.25-.56-2.83-7.54-.41-7.73.46.14-.19,2.1,1.43,1.49,0-.37,1.07-2.67,1.52-.8.15.28.39,1.24,1.17.74s-.46-1.61,1.36-1.93,1.93-2.78,3.47-3.29c4.48,1.52,9.87,1.34,14.76.26,3.53-.51-2.14,15,4.33,14.4.41-.9-1.34-2.44-1.13-4.55,0-1,.81-7.67,1.89-2.7.38,2.29-1.12,8.31,3.48,7.32-2.8-2.52.05-11.94,1.9-15.33a7.79,7.79,0,0,0,5-5.61c2.61-2.87,2.61-9.35,7.2-9.81,1.33-.29,2.73,1.68,4.6.73,5-2-3.09-5.65.94-8.74C84,33.56,86,33.22,85.2,32.17ZM31.76,68.31c1.69,8.26-5-5.21-4.6-8.6C28.88,57.47,30.64,64.93,31.76,68.31Zm4.77-7.49c-1.61,4.63-.47-1-2.85.3-.35.57.1,2.24-1.13,1.58-1.28-6.22-2.46,4.43-3.15-2.93.12-.61-1.69-.61-.57-1.3C30.84,53.7,45.43,56.53,36.53,60.82Zm22.85,1.83c-.79,2.75-1.51,5-.14,8.21-3.64.59-1.72-9.43-1.76-12.81C59.73,57.94,60,60.41,59.38,62.65ZM83.5,39.09c.73,1.66-1,.53-1.61,1.26,3.22,4.27-5.06-1.86-6.56,2.43-2.07,3.36-3.92,6.12-5.3,10.34-2,4.31-5.4,1.91-5.86,7.22-.08,2.1-1.75,4-1.58,6.56-.07.67.47,6.94-1.23,2.76-.3-.44-.25-12.83-3.2-12.33-3.23-.36-3.42-2.24-2.9-3.54.65-1.61,3.38,0,4.67-1.75.27-.87.7-2.55-.89-3.54-3.06-1.32-4.78,2.83-8.2,2.5-3.12-.3-6.74-3.86-10.65,5.76C29.71,52,22.51,60,26.14,71c-2.4.34-4.13-6.52-3.37-11.69,0-3.45,3.28-4.5,4.42-7.79.55-4.74-1.94-9.23-1.69-14.1-2.81,6.24,2.75,14.58-1.9,18-1.69,1.52-1.26,8.59-2.31,7.45-.38-4.61.9-6.31,2.84-10.51,1.09-12.91-4.91-21.9,10.42-18-13.16,6.25.63,17.11,3.56,14.27,4.26-4.56-2.32-5.94,4-10.06,1.64-1.77-1.46-4-.67-4.56,4,.05,8,0,12.26,0-3.36,4.51-6.11,9,3.64,8.85,2.12-.45,4.52,1.46,6.21-.52,7.26-3.09,2.47-5.78,6-8.08,3.28,1.91,3.85-.46,2.71,4.8.63,1,2.31,0,3.2-.07,1.72,1.14,4.27,2.41,6.25.18,1-1.76-3.24-1.16-3.32-3.28,1.08-2.77-3.24-1.26-3.61-3.71-.85-3.36,5.08-2.55,4.15.06C79.56,34.7,82,36.51,83.5,39.09ZM25.92,52.73c-.13-2-.33-4.92-.49-7.34A7.41,7.41,0,0,1,25.92,52.73Z"/></g><path class="cls-3" d="M53.61,70.34V68.55c-.65,0-.92-.53-1.53-.57a11.13,11.13,0,0,0-2.32,3.3c-.31-1,.28-2,.68-2.9-1.34-1.23-2.32-1.42-3.79-.76-.09.73.28,1.55-.86,2.15-.1-.64-.32-1.21.06-1.79A2.78,2.78,0,0,1,44,67.22a2.76,2.76,0,0,0-2.4-.48,3,3,0,0,0-1.77,1.15c-.36.48-.41.93-1.33.48a.59.59,0,0,0-.85.35,5.93,5.93,0,0,1-.42,1c-1-.79-.39-2.9-3.07-1.86.44.63,1,1.25.15,2.13.1-.44-.32-.47-.51-.66-.69.26-1.41.5-1.58,1.15,0,.19.13.45-.12.53s-.46-.19-.56-.38A9,9,0,0,1,30.4,67.5c-1-.14-1.68.12-1.63,1.12-.23-.22-.33-.28-.37-.36a1,1,0,0,0-1.12-.47c-.62.09-.35.5-.4.79,0,.12,0,.25,0,.38.23,1,1.42,1.79.74,2.91a10.73,10.73,0,0,0-3.21-3.57,3.42,3.42,0,0,1-1.36.24c-.2.44,1.25.86,0,1.3-.84.12-1.91.6-1.87-.66l-.42-.29-1.17.24c.18.92,1,1.65,1.37,2.52.21.54.16.8-.7.65s-1.19-.36-1.11-1A1.86,1.86,0,0,0,19,69.81c-.41,0-.87,0-1.16.26,0,.18,0,.36,0,.54s-.24.25-.43,0a6.24,6.24,0,0,0-1.52-1.88c-.15.32.11.94-.27.93-1.27,0-.72.74-1.07,1.1.56.92.14,1.8-.21,2.68V70.85a2.24,2.24,0,0,0-1.77-.78,7.69,7.69,0,0,1,0,2.91c-1-1.32-.77-2.7-1.49-3.88a2.58,2.58,0,0,0-1.64-.73c0,.46.51.87.32,1.34-.29.08-.41-.09-.59-.16s-.53-.18-.65-.12c-.31.17,0,.37.06.58.43,1.27,1.91,2.13,2.36,3.39,0,.08.15.15.24.22.62.48,2,.33,2.06,1.29a2.71,2.71,0,0,1,1.9.46c.45.2.67-.23.73-.57a9.22,9.22,0,0,1,.7-2.6,7.5,7.5,0,0,1,0,1.06c-.13.8.81.9,1.39.95s1.38-.08,1.6-.71c.06-.2-.17-.67.38-.52s1.32-.17,1.46.51c.07.34.07.8.72.74s.7-.55.7-1,0-1.07,0-1.84c.8.77,1.49,1.37,2.07,2a1.32,1.32,0,0,0,1.25.43c.79-.06.39-.53.57-.77,1.15.28,2.18.88,3.42.35.8.92,2.19-.41,3.25.57.89.84,4.17-.4,4.44-1.55-.09-.1-.1-.19,0-.27l-.07-.55c0-.51-.53-1-.21-1.65.44.6.8,1.09.62,1.69.56.39.29.94.44,1.41s.56,1.17,1.3.56S42,73.19,43,72.85c.77-.26.91-.55,1-1a7.52,7.52,0,0,1,.37-1.7,2.13,2.13,0,0,1,0,.83c-.33,1,.5,1.86.84,2.77a.5.5,0,0,0,.55.33c.29,0,.37-.22.51-.38.41-.52,0-1.2.72-1.76.42.52,0,1.2,1.06,1.58,1.46.55,1.58.67,2.31-.39.21-.31.17-.7.92-.67.35,0,.46-.35.36-.62s-.11-.49.37-.63c.18.66-.22,1.25-.26,1.86a3.17,3.17,0,0,0-.06.75.69.69,0,0,0,.68.61.7.7,0,0,0,.78-.52c.14-.4.28-.68.53-.65V70.36ZM9.75,70l-.08-.06.07-.07s.07,0,.07.06S9.77,70,9.75,70Zm9.81,2.9-.08-.05.06-.06s.07,0,.07,0S19.58,72.88,19.56,72.9Z"/><path class="cls-3" d="M57.33,64.32a.18.18,0,0,0,.09-.22l-.18.28Z"/><path class="cls-3" d="M57.24,64.38l.18-.28a1.73,1.73,0,0,0-.15-.2c-.2-.29-.29,0-.44.07l-3.36.62a.32.32,0,0,1-.39,0s.05-.14.08-.22c-.16-.1.33-.48-.15-.35s-1,.39-1.37-.42c.34,1.64-1,2.31-2.27,3.07a26.68,26.68,0,0,1,1.76-4.09c-1.3.65-2.18,1.69-3.65,2.25-.69-1.14-1.16-2.22.1-3.44a38.8,38.8,0,0,1,3.57-3.57c-3.58,1-5.15,3.37-6.8,5.65-.48-.11-.42-.58-1-.66-.11.49.5,1,0,1.52-.64-.44-.66-1.06-1.1-1.5-.19-.19-.24-.59-.64-.5a.7.7,0,0,0-.62.74c.05,1-.9,1.86-.39,3-1.26-1.62-2-3.54-5-4,.16.23.22.4.36.48,1.76,1,1.3,2.12.29,3.29a1.11,1.11,0,0,1-1.88.07A8.35,8.35,0,0,0,32,63.79c-.21-.1-.43-.31-.63-.3-2,.07-2.28-1.22-3-2.13a1.42,1.42,0,0,0-1.25-.61,13.35,13.35,0,0,1,1.51,5.85,3.8,3.8,0,0,1-2.15-1.67,7.88,7.88,0,0,0-3.65-2.87,30.35,30.35,0,0,1,2.7,3.54c.46.74-.12.56-.6.63L26.85,69c0-.13,0-.26,0-.38.05-.29-.22-.7.4-.79a1,1,0,0,1,1.12.47c0,.08.14.14.37.36-.05-1,.59-1.26,1.63-1.12a21.58,21.58,0,0,0-.64-3.16c-.05-.27-.32-.64,0-.79s.74.18,1,.44q1.71,1.91,3.4,3.82c2.68-1,2.1,1.07,3.07,1.86a5.93,5.93,0,0,0,.42-1,.59.59,0,0,1,.85-.35c.92.45,1,0,1.33-.48a3,3,0,0,1,1.77-1.15,2.76,2.76,0,0,1,2.4.48,2.78,2.78,0,0,0,1.83.76c.29-.08.33-.48.8-.36,1.47-.66,2.45-.47,3.79.76.52-.47.58-1.19,1.41-1.55.35.4.12.79.23,1.15.61,0,.88.58,1.53.57A8.42,8.42,0,0,1,56,65.78V66c.22-.33.48-.64.73-1A1,1,0,0,1,57.24,64.38ZM35.33,66.86c-.29.09-.16-.12-.21-.19s-.07-.16.11-.19.22.11.25.18S35.41,66.84,35.33,66.86ZM38,65.27a3.57,3.57,0,0,1,1.19,2.67C38.89,67,37.57,66.42,38,65.27Zm7.36,1.38c-.9-1.18-.1-2.06.77-2.94C46.09,64.71,47,65.85,45.38,66.65Zm9.16-.85a6.48,6.48,0,0,0-.7.54c-.43.37-.62.06-.61-.17,0-.55.76-.6,1.23-.83a2.15,2.15,0,0,1,.6-.07l.19.19A5.17,5.17,0,0,0,54.54,65.8Z"/><path class="cls-3" d="M12.53,70.07a2.24,2.24,0,0,1,1.77.78.3.3,0,0,0,.21,0c.35-.36-.2-1.13,1.07-1.1.38,0,.12-.61.27-.93l-2.5-4c-.08.67.33,1.08.39,1.54,0,.22.35.54-.17.62s-.54-.24-.63-.49a17.3,17.3,0,0,0-1-2.51c-.38,1.49.08,2.94.23,4.45a2.16,2.16,0,0,1-2-1.16,18.29,18.29,0,0,0-2.3-3.49c-.14-.18-.19-.61-.63-.46s-.07.38,0,.62c.46.93.78,1.89,1.27,2.81.21.41-.26.71-.18.92s.69.52,1.06.78A2.58,2.58,0,0,1,11,69.1,1.62,1.62,0,0,1,12.53,70.07Z"/><path class="cls-3" d="M2.39,71.47l-.71,0-.24.49c1.85.63,3.84,1.07,5.26,2.25a.94.94,0,0,0,1,.22c.64-.27.07-.69.2-1.07.61.05.61.57,1.07.71a1.06,1.06,0,0,0,.95,0,.36.36,0,0,0,.07-.6A13.2,13.2,0,0,0,6.17,70c-.37-.19-.78-.41-1.16-.13s.14.56.35.78a14.45,14.45,0,0,1,2.35,2.41A15.14,15.14,0,0,0,3,71.56.59.59,0,0,1,2.39,71.47Z"/><path class="cls-3" d="M17.81,70.07c.29-.31.75-.23,1.16-.26.13-.26-.62-1,.61-.68l1.17-.24c-1.26-1.67-2.53-3.33-5.33-3.94C17.82,66.28,17.45,68.27,17.81,70.07Z"/><path class="cls-3" d="M23,68.54a3.42,3.42,0,0,0,1.36-.24A10,10,0,0,0,21,63.8a2.41,2.41,0,0,0-2.16-.55s0,.07,0,.08a15.27,15.27,0,0,1,3.51,3.94A6.21,6.21,0,0,1,23,68.54Z"/><path class="cls-3" d="M21.17,69.18c0,1.26,1,.78,1.87.66A1.9,1.9,0,0,0,21.17,69.18Z"/><path class="cls-3" d="M38.15,71.71c.18-.6-.18-1.09-.62-1.69-.32.67.18,1.14.21,1.65Z"/><path class="cls-3" d="M1.44,71.92l.24-.49A4.05,4.05,0,0,0,0,71.51,2,2,0,0,0,1.44,71.92Z"/><path class="cls-3" d="M60.1,69.06a.53.53,0,0,0,0,.57A.48.48,0,0,0,60.1,69.06Z"/><path class="cls-3" d="M63.48,70.05l0,.25c.16,0,.17-.11.13-.21L63.58,70Z"/><path class="cls-3" d="M17.37,70.66c.19.2.35.23.43,0Z"/><path class="cls-3" d="M2.39,71.47a.59.59,0,0,0,.59.09A.75.75,0,0,0,2.39,71.47Z"/><path class="cls-3" d="M37.81,72.22c-.14.08-.13.17,0,.27C37.91,72.41,37.91,72.32,37.81,72.22Z"/><path class="cls-3" d="M33.82,69.28c-.48-1.17-1.92-1.75-2.79-2.68l-.32.12,1.53,3.71C32.41,69.78,33.13,69.54,33.82,69.28Z"/></g></g></g></svg>